<svg xmlns="http://www.w3.org/2000/svg" width="383.858" height="384" viewBox="0 0 383.858 384" fill="none">
  <path d="M 336.967 251.833 C 348 266.176 368.381 290.296 377.192 300.563 C 379.766 307.55 382.708 359.099 383.858 384 L 0 337.339 L 4.367 323.088 L 4.827 322.399 C 8.275 314.201 15.446 296.793 16.55 292.748 C 17.929 287.691 20.917 257.35 25.054 246.777 C 29.192 236.203 51.258 201.265 56.774 197.588 C 61.187 194.646 86.502 185.788 98.608 181.728 C 98.991 181.345 99.757 177.59 99.757 165.638 C 99.757 150.697 99.297 138.515 99.757 134.837 C 100.217 131.16 100.906 118.518 100.447 115.989 C 99.987 113.461 98.378 104.956 97.688 100.359 C 96.999 95.762 96.309 85.648 96.769 83.12 C 97.229 80.592 96.999 79.672 96.309 77.603 C 95.631 69.913 96.733 66.006 99.178 57.341 L 99.297 56.916 C 101.826 47.952 109.871 37.609 113.089 33.012 C 116.307 28.414 128.029 20.829 136.994 15.083 C 145.958 9.337 159.289 1.981 174.23 0.372 C 189.171 -1.237 214.225 2.671 218.592 6.348 C 222.959 10.026 224.798 10.716 234.912 14.163 C 254.22 23.817 270.08 48.872 271.689 58.525 C 273.297 68.179 267.551 98.75 267.321 105.646 C 267.091 112.541 263.414 124.724 266.172 125.873 C 268.93 127.022 269.39 124.724 271.689 127.252 C 273.987 129.781 272.148 133.458 271.689 138.515 C 271.229 143.572 264.793 151.847 263.414 159.202 C 262.035 166.557 256.748 179.889 256.288 181.958 C 255.828 184.026 254.219 182.647 256.748 188.164 C 259.276 193.68 280.423 208.621 287.319 213.678 C 294.214 218.734 323.176 233.905 336.967 251.833 Z" fill="currentColor" fill-rule="nonzero"></path>
</svg>