<svg xmlns="http://www.w3.org/2000/svg" width="383" height="384" viewBox="0 0 383 384" fill="none">
  <path d="M 376.349 300.563 L 381.042 298.838 L 380.732 297.994 L 380.147 297.311 L 376.349 300.563 Z M 336.214 251.833 L 340.181 248.789 L 336.214 251.833 Z M 234.387 14.163 L 236.627 9.693 L 236.324 9.542 L 236.003 9.432 L 234.387 14.163 Z M 96.094 77.603 L 91.113 78.042 L 91.165 78.625 L 91.35 79.181 L 96.094 77.603 Z M 98.387 181.728 L 99.981 186.467 L 101.096 186.092 L 101.927 185.259 L 98.387 181.728 Z M 56.647 197.588 L 53.87 193.43 L 56.647 197.588 Z M 16.513 292.748 L 21.337 294.06 L 16.513 292.748 Z M 4.816 322.399 L 8.979 325.168 L 9.243 324.772 L 9.427 324.334 L 4.816 322.399 Z M 4.357 323.088 L 0.194 320.319 L -0.21 320.928 L -0.424 321.626 L 4.357 323.088 Z M 0 337.339 L -4.781 335.877 L -6.526 341.581 L -0.605 342.303 L 0 337.339 Z M 383 384 L 382.395 388.963 L 388.267 389.679 L 387.995 383.77 L 383 384 Z M 376.349 300.563 L 380.147 297.311 C 371.353 287.041 351.098 263.014 340.181 248.789 L 336.214 251.833 L 332.248 254.878 C 343.347 269.339 363.762 293.55 372.551 303.815 L 376.349 300.563 Z M 336.214 251.833 L 340.181 248.789 C 332.791 239.161 321.568 230.519 311.677 223.794 C 306.682 220.398 301.92 217.421 298.02 215.002 C 294.002 212.511 291.152 210.762 289.638 209.649 L 286.677 213.678 L 283.715 217.706 C 285.641 219.122 288.983 221.165 292.749 223.501 C 296.632 225.909 301.244 228.793 306.054 232.063 C 315.771 238.67 325.877 246.577 332.248 254.878 L 336.214 251.833 Z M 286.677 213.678 L 289.638 209.649 C 286.123 207.066 279.245 202.151 272.876 197.158 C 269.694 194.663 266.726 192.216 264.431 190.094 C 263.282 189.032 262.359 188.105 261.682 187.335 C 261.346 186.953 261.1 186.642 260.929 186.402 C 260.749 186.15 260.705 186.049 260.721 186.084 L 256.174 188.164 L 251.627 190.243 C 252.25 191.606 253.243 192.881 254.171 193.937 C 255.158 195.06 256.352 196.245 257.643 197.438 C 260.229 199.828 263.439 202.466 266.706 205.028 C 273.238 210.149 280.349 215.232 283.715 217.706 L 286.677 213.678 Z M 256.174 188.164 L 260.721 186.084 C 260.118 184.766 259.868 184.084 259.775 183.763 C 259.67 183.401 259.915 183.984 259.691 184.923 C 259.574 185.418 259.38 185.788 259.252 185.997 C 259.2 186.082 259.162 186.132 259.179 186.11 C 259.187 186.098 259.196 186.086 259.223 186.048 C 259.245 186.018 259.28 185.969 259.319 185.915 C 259.483 185.683 259.747 185.293 260 184.772 C 260.255 184.244 260.457 183.67 260.597 183.04 L 255.716 181.958 L 250.834 180.875 C 250.859 180.762 250.91 180.598 251 180.412 C 251.087 180.233 251.17 180.118 251.159 180.134 C 251.083 180.242 251.183 180.099 251.043 180.295 C 250.976 180.388 250.86 180.553 250.736 180.755 C 250.463 181.198 250.151 181.816 249.962 182.612 C 249.596 184.155 249.883 185.556 250.172 186.552 C 250.473 187.589 250.969 188.803 251.627 190.243 L 256.174 188.164 Z M 255.716 181.958 L 260.597 183.04 C 260.592 183.064 260.644 182.86 260.843 182.258 C 261.019 181.726 261.256 181.043 261.545 180.218 C 262.114 178.595 262.875 176.461 263.656 174.185 C 265.192 169.708 266.975 164.208 267.74 160.121 L 262.825 159.202 L 257.91 158.282 C 257.299 161.551 255.757 166.395 254.197 170.939 C 253.43 173.174 252.7 175.221 252.108 176.909 C 251.586 178.397 251.031 179.988 250.834 180.875 L 255.716 181.958 Z M 262.825 159.202 L 267.74 160.121 C 268.272 157.275 269.85 154.02 271.757 150.257 C 272.647 148.5 273.621 146.6 274.386 144.82 C 275.129 143.088 275.873 141.036 276.061 138.967 L 271.081 138.515 L 266.102 138.063 C 266.06 138.523 265.83 139.401 265.197 140.873 C 264.586 142.296 263.782 143.872 262.837 145.736 C 261.075 149.213 258.754 153.773 257.91 158.282 L 262.825 159.202 Z M 271.081 138.515 L 276.061 138.967 C 276.154 137.936 276.321 136.94 276.516 135.878 C 276.695 134.899 276.938 133.669 277.076 132.545 C 277.356 130.269 277.44 126.82 274.785 123.893 L 271.081 127.252 L 267.378 130.611 C 267.016 130.213 267.33 129.867 267.151 131.326 C 267.06 132.069 266.901 132.865 266.679 134.076 C 266.472 135.206 266.238 136.565 266.102 138.063 L 271.081 138.515 Z M 271.081 127.252 L 274.785 123.893 C 273.947 122.969 272.869 122.019 271.445 121.468 C 269.877 120.862 268.521 120.983 267.739 121.104 C 267.566 121.13 267.408 121.16 267.31 121.178 C 267.192 121.2 267.143 121.209 267.089 121.218 C 267.003 121.232 267.038 121.223 267.122 121.22 C 267.377 121.212 267.542 121.275 267.504 121.259 L 265.577 125.873 L 263.65 130.487 C 264.989 131.046 266.243 131.252 267.43 131.215 C 267.98 131.198 268.441 131.131 268.758 131.078 C 268.906 131.053 269.052 131.025 269.127 131.011 C 269.22 130.994 269.25 130.989 269.263 130.987 C 269.285 130.984 269.1 131.015 268.818 131.002 C 268.505 130.987 268.165 130.922 267.837 130.795 C 267.23 130.56 267.069 130.271 267.378 130.611 L 271.081 127.252 Z M 265.577 125.873 L 267.504 121.259 C 268.949 121.862 269.44 123.006 269.537 123.279 C 269.629 123.537 269.575 123.539 269.561 123.058 C 269.535 122.126 269.679 120.662 269.978 118.649 C 270.509 115.08 271.594 109.637 271.721 105.812 L 266.724 105.646 L 261.727 105.48 C 261.625 108.55 260.761 112.646 260.087 117.179 C 259.784 119.217 259.512 121.446 259.565 123.337 C 259.591 124.267 259.7 125.463 260.117 126.634 C 260.539 127.82 261.518 129.596 263.65 130.487 L 265.577 125.873 Z M 266.724 105.646 L 271.721 105.812 C 271.768 104.403 272.123 101.491 272.681 97.409 C 273.219 93.477 273.916 88.637 274.549 83.764 C 275.184 78.879 275.771 73.827 276.097 69.354 C 276.413 65.014 276.522 60.764 276.014 57.705 L 271.081 58.525 L 266.149 59.346 C 266.443 61.114 266.438 64.305 266.123 68.628 C 265.818 72.818 265.259 77.65 264.632 82.476 C 264.004 87.314 263.326 92.014 262.773 96.055 C 262.242 99.945 261.795 103.441 261.727 105.48 L 266.724 105.646 Z M 271.081 58.525 L 276.014 57.705 C 275.484 54.522 273.914 50.597 271.814 46.568 C 269.664 42.444 266.781 37.87 263.344 33.328 C 256.529 24.321 247.204 14.994 236.627 9.693 L 234.387 14.163 L 232.147 18.634 C 240.834 22.987 249.054 31.014 255.369 39.361 C 258.497 43.496 261.075 47.599 262.946 51.19 C 264.866 54.875 265.876 57.702 266.149 59.346 L 271.081 58.525 Z M 234.387 14.163 L 236.003 9.432 C 230.856 7.673 228.179 6.736 226.22 5.816 C 224.481 5 223.304 4.195 221.328 2.527 L 218.104 6.348 L 214.879 10.169 C 217.26 12.18 219.18 13.558 221.971 14.868 C 224.541 16.075 227.826 17.206 232.77 18.895 L 234.387 14.163 Z M 218.104 6.348 L 221.328 2.527 C 220.172 1.552 218.718 0.851 217.432 0.333 C 216.057 -0.222 214.46 -0.73 212.745 -1.191 C 209.308 -2.116 205.102 -2.935 200.635 -3.572 C 191.762 -4.838 181.331 -5.465 173.304 -4.599 L 173.841 0.372 L 174.377 5.343 C 181.258 4.601 190.78 5.123 199.222 6.328 C 203.413 6.926 207.204 7.673 210.146 8.465 C 211.62 8.862 212.807 9.25 213.692 9.607 C 214.665 9.999 214.945 10.226 214.879 10.169 L 218.104 6.348 Z M 173.841 0.372 L 173.304 -4.599 C 157.206 -2.861 143.097 5.022 133.985 10.876 L 136.687 15.083 L 139.39 19.29 C 148.167 13.651 160.661 6.824 174.377 5.343 L 173.841 0.372 Z M 136.687 15.083 L 133.985 10.876 C 129.526 13.741 124.26 17.141 119.696 20.416 C 117.413 22.055 115.243 23.706 113.405 25.283 C 111.626 26.809 109.907 28.473 108.737 30.149 L 112.836 33.012 L 116.935 35.875 C 117.37 35.252 118.318 34.244 119.914 32.874 C 121.451 31.557 123.367 30.091 125.527 28.54 C 129.85 25.437 134.905 22.171 139.39 19.29 L 136.687 15.083 Z M 112.836 33.012 L 108.737 30.149 C 107.266 32.254 104.276 36.246 101.479 40.643 C 98.683 45.037 95.726 50.361 94.262 55.562 L 99.075 56.916 L 103.888 58.271 C 104.948 54.508 107.265 50.177 109.916 46.01 C 112.566 41.845 115.195 38.366 116.935 35.875 L 112.836 33.012 Z M 99.075 56.916 L 94.262 55.562 C 91.736 64.538 90.337 69.23 91.113 78.042 L 96.094 77.603 L 101.075 77.165 C 100.475 70.347 101.369 67.224 103.888 58.271 L 99.075 56.916 Z M 96.094 77.603 L 91.35 79.181 C 91.701 80.238 91.76 80.516 91.782 80.721 C 91.797 80.863 91.819 81.202 91.633 82.227 L 96.553 83.12 L 101.472 84.012 C 101.745 82.51 101.882 81.125 101.725 79.658 C 101.575 78.253 101.175 77.037 100.838 76.025 L 96.094 77.603 Z M 96.553 83.12 L 91.633 82.227 C 91.424 83.377 91.395 84.918 91.406 86.273 C 91.418 87.76 91.487 89.495 91.59 91.257 C 91.795 94.755 92.15 98.596 92.525 101.099 L 97.47 100.359 L 102.415 99.619 C 102.102 97.525 101.769 94.011 101.573 90.671 C 101.476 89.014 101.415 87.459 101.406 86.195 C 101.401 85.562 101.409 85.035 101.427 84.623 C 101.447 84.174 101.475 84 101.472 84.012 L 96.553 83.12 Z M 97.47 100.359 L 92.525 101.099 C 93.228 105.798 94.86 114.444 95.302 116.882 L 100.222 115.989 L 105.142 115.097 C 104.667 112.478 103.088 104.114 102.415 99.619 L 97.47 100.359 Z M 100.222 115.989 L 95.302 116.882 C 95.295 116.839 95.325 117.026 95.347 117.577 C 95.367 118.07 95.376 118.705 95.373 119.461 C 95.366 120.971 95.311 122.833 95.227 124.764 C 95.056 128.676 94.776 132.589 94.573 134.218 L 99.534 134.837 L 104.496 135.456 C 104.751 133.408 105.044 129.161 105.217 125.201 C 105.305 123.196 105.365 121.193 105.373 119.506 C 105.379 117.994 105.353 116.261 105.142 115.097 L 100.222 115.989 Z M 99.534 134.837 L 94.573 134.218 C 94.291 136.48 94.307 140.874 94.362 146.067 C 94.42 151.478 94.534 158.203 94.534 165.638 L 99.534 165.638 L 104.534 165.638 C 104.534 158.132 104.419 151.295 104.362 145.961 C 104.303 140.408 104.319 136.872 104.496 135.456 L 99.534 134.837 Z M 99.534 165.638 L 94.534 165.638 C 94.534 171.527 94.345 175.28 94.127 177.542 C 94.017 178.682 93.908 179.358 93.836 179.698 C 93.799 179.875 93.79 179.869 93.832 179.751 C 93.853 179.691 93.912 179.532 94.021 179.319 C 94.107 179.154 94.359 178.686 94.848 178.196 L 98.387 181.728 L 101.927 185.259 C 102.833 184.351 103.185 183.297 103.261 183.083 C 103.417 182.639 103.532 182.184 103.619 181.768 C 103.798 180.923 103.952 179.841 104.081 178.501 C 104.341 175.802 104.534 171.701 104.534 165.638 L 99.534 165.638 Z M 98.387 181.728 L 96.794 176.988 C 90.724 179.029 81.342 182.275 72.909 185.386 C 68.696 186.94 64.683 188.475 61.425 189.816 C 58.348 191.083 55.459 192.368 53.87 193.43 L 56.647 197.588 L 59.425 201.745 C 60.037 201.336 61.957 200.411 65.232 199.063 C 68.326 197.789 72.208 196.304 76.37 194.768 C 84.686 191.7 93.972 188.487 99.981 186.467 L 98.387 181.728 Z M 56.647 197.588 L 53.87 193.43 C 52.555 194.308 51.223 195.734 50.078 197.072 C 48.829 198.531 47.419 200.349 45.929 202.381 C 42.941 206.454 39.481 211.593 36.091 216.907 C 29.409 227.382 22.608 239.15 20.341 244.958 L 24.998 246.777 L 29.656 248.595 C 31.516 243.83 37.788 232.842 44.522 222.285 C 47.84 217.084 51.175 212.137 53.992 208.295 C 55.404 206.37 56.65 204.772 57.675 203.575 C 58.187 202.977 58.612 202.516 58.95 202.181 C 59.315 201.819 59.464 201.719 59.425 201.745 L 56.647 197.588 Z M 24.998 246.777 L 20.341 244.958 C 18.03 250.875 16.186 261.72 14.779 271.088 C 14.06 275.871 13.42 280.535 12.89 284.203 C 12.33 288.076 11.931 290.541 11.688 291.435 L 16.513 292.748 L 21.337 294.06 C 21.782 292.426 22.271 289.202 22.787 285.633 C 23.332 281.859 23.953 277.33 24.668 272.574 C 26.127 262.863 27.838 253.251 29.656 248.595 L 24.998 246.777 Z M 16.513 292.748 L 11.688 291.435 C 11.233 293.108 9.309 298.143 6.9 304.157 C 4.556 310.007 1.918 316.383 0.206 320.464 L 4.816 322.399 L 9.427 324.334 C 11.154 320.217 13.814 313.79 16.183 307.875 C 18.487 302.124 20.692 296.432 21.337 294.06 L 16.513 292.748 Z M 4.816 322.399 L 0.653 319.63 L 0.194 320.319 L 4.357 323.088 L 8.521 325.858 L 8.979 325.168 L 4.816 322.399 Z M 4.357 323.088 L -0.424 321.626 L -4.781 335.877 L 0 337.339 L 4.781 338.801 L 9.139 324.55 L 4.357 323.088 Z M 0 337.339 L -0.605 342.303 L 382.395 388.963 L 383 384 L 383.605 379.037 L 0.605 332.376 L 0 337.339 Z M 383 384 L 387.995 383.77 C 387.42 371.293 386.397 352.137 385.195 335.21 C 384.594 326.751 383.946 318.809 383.283 312.522 C 382.952 309.381 382.612 306.609 382.267 304.37 C 381.942 302.266 381.556 300.237 381.042 298.838 L 376.349 300.563 L 371.656 302.288 C 371.784 302.635 372.052 303.745 372.384 305.896 C 372.695 307.91 373.015 310.506 373.338 313.57 C 373.984 319.692 374.623 327.504 375.22 335.918 C 376.415 352.737 377.433 371.806 378.005 384.23 L 383 384 Z" fill="#e1a1b1" fill-rule="nonzero"></path>
</svg>