<svg xmlns="http://www.w3.org/2000/svg" width="583.500" height="383" viewBox="0 0 583.500 383" fill="none">
  <path d="M 54.75 266.5 C 41.95 274.9 30.583 298.333 26.5 309 L 0 371.5 L 580.5 383 C 581.5 374.333 583.5 351.45 583.5 329.25 C 583.5 301.5 576.25 282.25 573.5 263 C 570.75 243.75 560 231.25 554.25 225 C 549.65 220 539.833 212.583 535.5 209.5 L 498.25 181 C 496.917 180.167 494.25 176.65 494.25 169.25 C 494.25 160 490 150.75 489.25 148.75 C 488.5 146.75 486.25 143.5 486.75 140 C 487.25 136.5 489.5 137.25 493.5 129.75 C 497.5 122.25 504.25 107.25 505.5 102 C 506.75 96.75 509 90.5 504.25 71.25 C 492.25 36.75 473 18.5 457.75 11.75 C 442.5 5 419.5 1.5 392 13 C 364.5 24.5 351.75 45.5 349.75 47.5 C 347.75 49.5 348 49 346.75 49.5 C 345.5 47.5 336.5 41.75 329.25 35.75 C 322 29.75 312.5 26.25 309.5 25.25 C 306.5 24.25 298.5 22.5 290.75 19.75 C 283 17 269 14.25 264.25 13 C 259.5 11.75 257.5 11 245.5 6.5 C 233.75 0.25 232.25 1.25 230.5 1.25 C 228.75 1.25 226.75 4.5 224.75 3.25 C 222.75 2 220.75 0 213 0 C 205.25 0 199.5 7 197.75 11.75 C 196 16.5 190.5 41.75 190.25 45.75 C 190 49.75 186.5 73.5 186.5 82.75 C 186.5 92 186.5 101.75 184 113 C 181.5 124.25 184.25 144.5 185.75 151 C 187.25 157.5 188.75 168.5 189.75 173.75 C 190.75 179 190.25 181.25 194.25 183.25 C 198.25 185.25 197.75 188.5 194.25 190.25 C 190.75 192 177.5 199 171.5 203 C 165.5 207 138 220.5 131.5 222.5 C 125 224.5 125.5 225 117.25 225 C 109 225 91.75 237.25 88.25 239.25 C 84.75 241.25 75.5 242.75 73 246 C 70.5 249.25 70.75 256 54.75 266.5 Z" fill="currentColor" fill-rule="nonzero"></path>
</svg>