<svg xmlns="http://www.w3.org/2000/svg" width="583.500" height="383" viewBox="0 0 583.500 383" fill="none">
  <path d="M 26.5 309 L 33.865 312.123 L 33.921 311.992 L 33.971 311.86 L 26.5 309 Z M 54.75 266.5 L 59.139 273.188 L 59.139 273.188 L 54.75 266.5 Z M 245.5 6.5 L 241.743 13.563 L 242.203 13.808 L 242.691 13.991 L 245.5 6.5 Z M 346.75 49.5 L 339.966 53.74 L 343.511 59.412 L 349.721 56.928 L 346.75 49.5 Z M 504.25 71.25 L 512.017 69.333 L 511.928 68.973 L 511.806 68.622 L 504.25 71.25 Z M 498.25 181 L 503.111 174.646 L 502.811 174.416 L 502.49 174.216 L 498.25 181 Z M 535.5 209.5 L 530.639 215.854 L 530.749 215.938 L 530.862 216.018 L 535.5 209.5 Z M 554.25 225 L 548.363 230.416 L 554.25 225 Z M 580.5 383 L 580.342 390.998 L 587.614 391.142 L 588.447 383.917 L 580.5 383 Z M 0 371.5 L -7.365 368.377 L -11.981 379.264 L -0.158 379.498 L 0 371.5 Z M 26.5 309 L 33.971 311.86 C 35.867 306.909 39.531 298.813 44.214 291.02 C 49.037 282.992 54.317 276.353 59.139 273.188 L 54.75 266.5 L 50.361 259.812 C 42.383 265.047 35.579 274.324 30.499 282.78 C 25.277 291.47 21.217 300.424 19.029 306.14 L 26.5 309 Z M 54.75 266.5 L 59.139 273.188 C 67.834 267.483 72.637 262.446 75.613 257.941 C 77.078 255.722 77.983 253.804 78.609 252.447 C 79.36 250.817 79.399 250.803 79.341 250.878 L 73 246 L 66.659 241.122 C 65.351 242.822 64.483 244.871 64.079 245.748 C 63.548 246.899 63.047 247.934 62.262 249.122 C 60.738 251.429 57.666 255.017 50.361 259.812 L 54.75 266.5 Z M 73 246 L 79.341 250.878 C 78.837 251.533 78.554 251.49 79.488 251.028 C 80.269 250.643 81.359 250.224 82.803 249.738 C 83.505 249.502 84.223 249.271 84.989 249.026 C 85.732 248.787 86.534 248.53 87.304 248.27 C 88.706 247.796 90.603 247.119 92.219 246.196 L 88.25 239.25 L 84.281 232.304 C 84.292 232.298 84.253 232.321 84.146 232.37 C 84.041 232.419 83.896 232.483 83.703 232.56 C 83.309 232.719 82.81 232.9 82.181 233.113 C 81.552 233.325 80.873 233.543 80.103 233.79 C 79.355 234.03 78.527 234.295 77.697 234.575 C 76.079 235.12 74.169 235.81 72.403 236.683 C 70.79 237.479 68.413 238.842 66.659 241.122 L 73 246 Z M 88.25 239.25 L 92.219 246.196 C 93.322 245.566 95.4 244.202 97.404 242.922 C 99.604 241.517 102.22 239.878 104.946 238.316 C 107.695 236.741 110.41 235.328 112.807 234.33 C 115.406 233.247 116.826 233 117.25 233 L 117.25 225 L 117.25 217 C 113.549 217 109.719 218.284 106.654 219.56 C 103.387 220.922 100.024 222.696 96.992 224.434 C 93.936 226.185 91.068 227.983 88.791 229.438 C 86.318 231.017 84.928 231.934 84.281 232.304 L 88.25 239.25 Z M 117.25 225 L 117.25 233 C 121.392 233 124.096 232.892 126.737 232.316 C 128.843 231.857 131.479 230.877 133.853 230.146 L 131.5 222.5 L 129.147 214.854 C 127.422 215.385 126.103 215.835 125.188 216.136 C 124.231 216.451 123.756 216.59 123.326 216.684 C 122.529 216.858 121.358 217 117.25 217 L 117.25 225 Z M 131.5 222.5 L 133.853 230.146 C 137.83 228.922 146.95 224.721 155.201 220.687 C 163.522 216.619 172.409 212.009 175.938 209.656 L 171.5 203 L 167.062 196.344 C 164.591 197.991 156.728 202.131 148.174 206.313 C 139.55 210.529 131.67 214.078 129.147 214.854 L 131.5 222.5 Z M 171.5 203 L 175.938 209.656 C 181.489 205.955 194.35 199.144 197.828 197.405 L 194.25 190.25 L 190.672 183.095 C 187.15 184.856 173.511 192.045 167.062 196.344 L 171.5 203 Z M 194.25 190.25 L 197.828 197.405 C 200.859 195.89 204.791 192.61 205.053 187.234 C 205.335 181.451 201.237 177.799 197.828 176.095 L 194.25 183.25 L 190.672 190.405 C 191.263 190.701 188.915 189.674 189.072 186.454 C 189.209 183.64 191.141 182.86 190.672 183.095 L 194.25 190.25 Z M 194.25 183.25 L 197.828 176.095 C 197.408 175.885 197.564 175.894 197.872 176.227 C 198.235 176.619 198.406 177.018 198.448 177.141 C 198.455 177.161 198.431 177.093 198.384 176.875 C 198.337 176.651 198.284 176.355 198.213 175.909 C 198.086 175.112 197.889 173.723 197.609 172.253 L 189.75 173.75 L 181.891 175.247 C 182.111 176.402 182.227 177.263 182.412 178.427 C 182.571 179.425 182.812 180.857 183.302 182.297 C 183.844 183.888 184.703 185.553 186.128 187.093 C 187.498 188.574 189.092 189.615 190.672 190.405 L 194.25 183.25 Z M 189.75 173.75 L 197.609 172.253 C 196.79 167.957 195.047 155.71 193.545 149.201 L 185.75 151 L 177.955 152.799 C 179.453 159.29 180.71 169.043 181.891 175.247 L 189.75 173.75 Z M 185.75 151 L 193.545 149.201 C 192.906 146.43 191.891 140.152 191.351 133.165 C 190.8 126.027 190.83 119.143 191.809 114.735 L 184 113 L 176.191 111.265 C 174.67 118.107 174.825 126.973 175.399 134.397 C 175.984 141.973 177.094 149.07 177.955 152.799 L 185.75 151 Z M 184 113 L 191.809 114.735 C 194.522 102.529 194.5 91.973 194.5 82.75 L 186.5 82.75 L 178.5 82.75 C 178.5 92.027 178.478 100.971 176.191 111.265 L 184 113 Z M 186.5 82.75 L 194.5 82.75 C 194.5 78.696 195.303 70.953 196.225 63.229 C 197.084 56.032 198.091 48.545 198.234 46.249 L 190.25 45.75 L 182.266 45.251 C 182.159 46.955 181.291 53.343 180.338 61.333 C 179.447 68.797 178.5 77.554 178.5 82.75 L 186.5 82.75 Z M 190.25 45.75 L 198.234 46.249 C 198.233 46.275 198.241 46.155 198.285 45.825 C 198.326 45.521 198.386 45.124 198.467 44.632 C 198.628 43.647 198.856 42.392 199.137 40.93 C 199.699 38.011 200.45 34.401 201.252 30.746 C 202.925 23.121 204.616 16.255 205.257 14.516 L 197.75 11.75 L 190.243 8.984 C 189.134 11.995 187.2 20.129 185.623 27.317 C 184.8 31.068 184.02 34.817 183.425 37.906 C 182.878 40.753 182.367 43.633 182.266 45.251 L 190.25 45.75 Z M 197.75 11.75 L 205.257 14.516 C 205.669 13.398 206.783 11.552 208.453 10.061 C 210.075 8.613 211.633 8 213 8 L 213 0 L 213 -8 C 206.617 -8 201.425 -5.113 197.797 -1.874 C 194.217 1.323 191.581 5.352 190.243 8.984 L 197.75 11.75 Z M 213 0 L 213 8 C 216.195 8 217.61 8.413 218.178 8.63 C 218.93 8.917 218.747 8.932 220.51 10.034 L 224.75 3.25 L 228.99 -3.534 C 228.753 -3.682 226.57 -5.292 223.885 -6.317 C 221.015 -7.413 217.555 -8 213 -8 L 213 0 Z M 224.75 3.25 L 220.51 10.034 C 223.154 11.687 225.978 11.8 228.258 11.208 C 230.156 10.715 231.598 9.754 232.206 9.342 C 232.54 9.115 232.914 8.846 233.063 8.74 C 233.281 8.587 233.335 8.553 233.328 8.557 C 233.324 8.56 233.091 8.706 232.689 8.86 C 232.28 9.016 231.516 9.25 230.5 9.25 L 230.5 1.25 L 230.5 -6.75 C 229.047 -6.75 227.837 -6.415 226.976 -6.085 C 226.122 -5.759 225.43 -5.368 224.961 -5.081 C 224.489 -4.791 224.073 -4.499 223.814 -4.316 C 223.488 -4.084 223.382 -4.006 223.232 -3.905 C 223.11 -3.822 223.138 -3.848 223.258 -3.911 C 223.377 -3.974 223.717 -4.144 224.234 -4.278 C 224.776 -4.419 225.553 -4.531 226.478 -4.417 C 227.431 -4.299 228.289 -3.972 228.99 -3.534 L 224.75 3.25 Z M 230.5 1.25 L 230.5 9.25 C 232.583 9.25 231.499 9.084 232.255 9.278 C 233.382 9.569 236.024 10.521 241.743 13.563 L 245.5 6.5 L 249.257 -0.563 C 243.226 -3.771 239.243 -5.444 236.245 -6.216 C 232.876 -7.084 230.167 -6.75 230.5 -6.75 L 230.5 1.25 Z M 245.5 6.5 L 242.691 13.991 C 254.586 18.451 256.993 19.363 262.214 20.737 L 264.25 13 L 266.286 5.263 C 262.007 4.137 260.414 3.549 248.309 -0.991 L 245.5 6.5 Z M 264.25 13 L 262.214 20.737 C 264.707 21.393 269.8 22.487 274.548 23.601 C 279.623 24.791 284.665 26.08 288.075 27.289 L 290.75 19.75 L 293.425 12.211 C 289.085 10.67 283.252 9.209 278.202 8.024 C 272.825 6.763 268.543 5.857 266.286 5.263 L 264.25 13 Z M 290.75 19.75 L 288.075 27.289 C 292.237 28.767 296.405 29.954 299.814 30.878 C 303.493 31.875 305.758 32.436 306.97 32.839 L 309.5 25.25 L 312.03 17.661 C 310.242 17.064 307.007 16.25 303.999 15.435 C 300.72 14.546 297.013 13.483 293.425 12.211 L 290.75 19.75 Z M 309.5 25.25 L 306.97 32.839 C 309.751 33.766 318.082 36.892 324.149 41.913 L 329.25 35.75 L 334.351 29.587 C 325.918 22.608 315.249 18.734 312.03 17.661 L 309.5 25.25 Z M 329.25 35.75 L 324.149 41.913 C 327.995 45.095 332.287 48.198 335.509 50.569 C 337.178 51.797 338.51 52.791 339.484 53.578 C 339.97 53.97 340.27 54.232 340.431 54.385 C 340.695 54.635 340.365 54.379 339.966 53.74 L 346.75 49.5 L 353.534 45.26 C 352.822 44.121 351.938 43.247 351.442 42.777 C 350.844 42.209 350.178 41.647 349.532 41.126 C 348.24 40.084 346.634 38.89 344.991 37.681 C 341.588 35.177 337.755 32.405 334.351 29.587 L 329.25 35.75 Z M 346.75 49.5 L 349.721 56.928 C 349.656 56.954 349.555 56.983 349.749 56.925 C 349.995 56.852 350.837 56.611 351.8 56.086 C 352.693 55.598 353.385 55.04 353.875 54.612 C 354.363 54.186 354.877 53.687 355.407 53.157 L 349.75 47.5 L 344.093 41.843 C 343.87 42.066 343.701 42.232 343.571 42.356 C 343.44 42.481 343.372 42.542 343.351 42.56 C 343.329 42.58 343.39 42.525 343.514 42.433 C 343.647 42.335 343.858 42.192 344.138 42.039 C 344.276 41.964 344.418 41.894 344.56 41.83 C 344.702 41.766 344.829 41.715 344.937 41.675 C 345.042 41.636 345.122 41.61 345.163 41.597 C 345.198 41.585 345.217 41.58 345.181 41.591 C 345.166 41.595 345.075 41.622 345.002 41.644 C 344.913 41.671 344.802 41.706 344.674 41.747 C 344.41 41.833 344.112 41.939 343.779 42.072 L 346.75 49.5 Z M 349.75 47.5 L 355.407 53.157 C 356.159 52.404 357 51.261 357.401 50.729 C 358.011 49.92 358.728 48.961 359.622 47.821 C 361.397 45.559 363.832 42.635 366.995 39.444 C 373.327 33.054 382.539 25.628 395.086 20.381 L 392 13 L 388.914 5.619 C 373.961 11.872 363.048 20.696 355.63 28.181 C 351.918 31.927 349.072 35.347 347.034 37.945 C 346.022 39.235 345.2 40.334 344.622 41.101 C 343.836 42.145 343.841 42.096 344.093 41.843 L 349.75 47.5 Z M 392 13 L 395.086 20.381 C 420.401 9.795 441.109 13.133 454.512 19.065 L 457.75 11.75 L 460.988 4.435 C 443.891 -3.133 418.599 -6.795 388.914 5.619 L 392 13 Z M 457.75 11.75 L 454.512 19.065 C 467.306 24.729 485.252 40.982 496.694 73.878 L 504.25 71.25 L 511.806 68.622 C 499.248 32.518 478.694 12.271 460.988 4.435 L 457.75 11.75 Z M 504.25 71.25 L 496.483 73.167 C 498.746 82.336 499.228 87.964 499.128 91.659 C 499.03 95.277 498.405 97.259 497.718 100.147 L 505.5 102 L 513.282 103.853 C 513.845 101.491 514.97 97.723 515.122 92.091 C 515.272 86.536 514.504 79.414 512.017 69.333 L 504.25 71.25 Z M 505.5 102 L 497.718 100.147 C 497.286 101.959 495.592 106.375 493.205 111.818 C 490.916 117.037 488.317 122.467 486.441 125.985 L 493.5 129.75 L 500.559 133.515 C 502.683 129.533 505.459 123.713 507.858 118.245 C 510.158 113 512.464 107.291 513.282 103.853 L 505.5 102 Z M 493.5 129.75 L 486.441 125.985 C 484.875 128.923 483.8 130.033 483.005 130.873 C 482.626 131.272 481.553 132.349 480.708 133.675 C 479.679 135.289 479.096 137.007 478.83 138.869 L 486.75 140 L 494.67 141.131 C 494.67 141.13 494.664 141.171 494.647 141.244 C 494.629 141.319 494.6 141.422 494.556 141.546 C 494.46 141.815 494.332 142.068 494.198 142.278 C 494.04 142.526 493.874 142.665 494.62 141.877 C 496.075 140.342 498.125 138.077 500.559 133.515 L 493.5 129.75 Z M 486.75 140 L 478.83 138.869 C 478.295 142.614 479.28 145.829 480.093 147.882 C 480.508 148.931 480.961 149.871 481.265 150.503 C 481.433 150.852 481.544 151.082 481.641 151.292 C 481.737 151.5 481.764 151.57 481.759 151.559 L 489.25 148.75 L 496.741 145.941 C 496.396 145.023 495.923 144.063 495.68 143.559 C 495.367 142.911 495.148 142.444 494.97 141.993 C 494.595 141.046 494.705 140.886 494.67 141.131 L 486.75 140 Z M 489.25 148.75 L 481.759 151.559 C 482.792 154.313 486.25 161.834 486.25 169.25 L 494.25 169.25 L 502.25 169.25 C 502.25 158.166 497.208 147.187 496.741 145.941 L 489.25 148.75 Z M 494.25 169.25 L 486.25 169.25 C 486.25 178.161 489.446 184.932 494.01 187.784 L 498.25 181 L 502.49 174.216 C 502.864 174.45 503.096 174.656 503.203 174.757 C 503.321 174.87 503.374 174.938 503.377 174.942 C 503.383 174.948 503.255 174.783 503.081 174.386 C 502.742 173.609 502.25 171.989 502.25 169.25 L 494.25 169.25 Z M 498.25 181 L 493.389 187.354 L 530.639 215.854 L 535.5 209.5 L 540.361 203.146 L 503.111 174.646 L 498.25 181 Z M 535.5 209.5 L 530.862 216.018 C 535.24 219.133 544.403 226.112 548.363 230.416 L 554.25 225 L 560.137 219.584 C 554.897 213.888 544.427 206.033 540.138 202.982 L 535.5 209.5 Z M 554.25 225 L 548.363 230.416 C 553.827 236.356 563.184 247.357 565.58 264.131 L 573.5 263 L 581.42 261.869 C 578.316 240.143 566.173 226.144 560.137 219.584 L 554.25 225 Z M 573.5 263 L 565.58 264.131 C 566.994 274.026 569.656 284.442 571.689 294.52 C 573.788 304.92 575.5 316.101 575.5 329.25 L 583.5 329.25 L 591.5 329.25 C 591.5 314.649 589.587 302.33 587.373 291.355 C 585.094 280.058 582.756 271.224 581.42 261.869 L 573.5 263 Z M 583.5 329.25 L 575.5 329.25 C 575.5 351.067 573.528 373.633 572.553 382.083 L 580.5 383 L 588.447 383.917 C 589.472 375.033 591.5 351.833 591.5 329.25 L 583.5 329.25 Z M 580.5 383 L 580.658 375.002 L 0.158 363.502 L 0 371.5 L -0.158 379.498 L 580.342 390.998 L 580.5 383 Z M 0 371.5 L 7.365 374.623 L 33.865 312.123 L 26.5 309 L 19.135 305.877 L -7.365 368.377 L 0 371.5 Z" fill="#e1a1b1" fill-rule="nonzero"></path>
</svg>