<svg xmlns="http://www.w3.org/2000/svg" width="395" height="423.267" viewBox="0 0 395 423.267" fill="none">
  <path d="M 47.608 143.568 C 26.185 118.574 6.943 133.154 0 143.568 L 0 423.267 L 395 423.267 L 395 0 L 208.286 0 C 191.921 17.109 185.226 39.426 182.25 66.949 C 179.275 94.473 185.97 122.74 187.458 134.642 C 188.945 146.544 176.299 139.849 174.812 134.642 C 173.324 129.435 175.556 119.765 171.836 106.375 C 168.117 92.985 156.959 78.851 140.593 81.083 C 124.228 83.315 121.252 99.68 121.252 111.582 C 80.339 111.582 62.486 125.716 47.608 143.568 Z" fill="currentColor" fill-rule="nonzero"></path>
  <path d="M 0 143.568 L -0.416 143.291 L -0.5 143.417 L -0.5 143.568 L 0 143.568 Z M 47.608 143.568 L 47.229 143.894 L 47.614 144.343 L 47.992 143.889 L 47.608 143.568 Z M 121.252 111.582 L 121.252 112.082 L 121.752 112.082 L 121.752 111.582 L 121.252 111.582 Z M 140.593 81.083 L 140.661 81.578 L 140.661 81.578 L 140.593 81.083 Z M 171.836 106.375 L 172.318 106.241 L 172.318 106.241 L 171.836 106.375 Z M 174.812 134.642 L 174.331 134.78 L 174.331 134.78 L 174.812 134.642 Z M 187.458 134.642 L 186.961 134.704 L 186.961 134.704 L 187.458 134.642 Z M 182.25 66.949 L 181.753 66.895 L 181.753 66.895 L 182.25 66.949 Z M 208.286 0 L 208.286 -0.5 L 208.073 -0.5 L 207.925 -0.346 L 208.286 0 Z M 395 0 L 395.5 0 L 395.5 -0.5 L 395 -0.5 L 395 0 Z M 395 423.267 L 395 423.767 L 395.5 423.767 L 395.5 423.267 L 395 423.267 Z M 0 423.267 L -0.5 423.267 L -0.5 423.767 L 0 423.767 L 0 423.267 Z M 0 143.568 L 0.416 143.846 C 3.844 138.704 10.293 132.564 18.48 130.779 C 26.614 129.005 36.605 131.5 47.229 143.894 L 47.608 143.568 L 47.988 143.243 C 37.188 130.643 26.846 127.931 18.267 129.802 C 9.742 131.661 3.099 138.019 -0.416 143.291 L 0 143.568 Z M 47.608 143.568 L 47.992 143.889 C 55.409 134.989 63.54 127.049 74.892 121.327 C 86.244 115.605 100.854 112.082 121.252 112.082 L 121.252 111.582 L 121.252 111.082 C 100.737 111.082 85.964 114.626 74.442 120.434 C 62.919 126.242 54.685 134.295 47.224 143.248 L 47.608 143.568 Z M 121.252 111.582 L 121.752 111.582 C 121.752 105.66 122.495 98.68 125.237 92.921 C 127.967 87.189 132.672 82.668 140.661 81.578 L 140.593 81.083 L 140.526 80.588 C 132.149 81.73 127.184 86.507 124.334 92.491 C 121.498 98.448 120.752 105.602 120.752 111.582 L 121.252 111.582 Z M 140.593 81.083 L 140.661 81.578 C 148.669 80.486 155.405 83.391 160.616 88.237 C 165.837 93.091 169.515 99.886 171.354 106.509 L 171.836 106.375 L 172.318 106.241 C 170.438 99.474 166.677 92.507 161.297 87.505 C 155.908 82.494 148.883 79.448 140.526 80.588 L 140.593 81.083 Z M 171.836 106.375 L 171.354 106.509 C 173.198 113.147 173.568 118.865 173.661 123.587 C 173.707 125.928 173.684 128.084 173.742 129.927 C 173.801 131.783 173.941 133.415 174.331 134.78 L 174.812 134.642 L 175.292 134.505 C 174.938 133.266 174.8 131.737 174.742 129.896 C 174.684 128.043 174.708 125.968 174.661 123.567 C 174.567 118.804 174.193 112.993 172.318 106.241 L 171.836 106.375 Z M 174.812 134.642 L 174.331 134.78 C 174.741 136.214 175.891 137.687 177.299 138.893 C 178.715 140.104 180.454 141.1 182.123 141.542 C 183.779 141.98 185.484 141.896 186.666 140.755 C 187.837 139.625 188.332 137.608 187.954 134.58 L 187.458 134.642 L 186.961 134.704 C 187.327 137.627 186.799 139.237 185.971 140.036 C 185.154 140.824 183.884 140.973 182.378 140.575 C 180.885 140.18 179.277 139.269 177.95 138.133 C 176.615 136.99 175.626 135.674 175.292 134.505 L 174.812 134.642 Z M 187.458 134.642 L 187.954 134.58 C 186.457 122.602 179.78 94.449 182.748 67.003 L 182.25 66.949 L 181.753 66.895 C 178.77 94.496 185.483 122.878 186.961 134.704 L 187.458 134.642 Z M 182.25 66.949 L 182.748 67.003 C 185.718 39.523 192.394 17.338 208.648 0.346 L 208.286 0 L 207.925 -0.346 C 191.448 16.881 184.734 39.328 181.753 66.895 L 182.25 66.949 Z M 208.286 0 L 208.286 0.5 L 395 0.5 L 395 0 L 395 -0.5 L 208.286 -0.5 L 208.286 0 Z M 395 0 L 394.5 0 L 394.5 423.267 L 395 423.267 L 395.5 423.267 L 395.5 0 L 395 0 Z M 395 423.267 L 395 422.767 L 0 422.767 L 0 423.267 L 0 423.767 L 395 423.767 L 395 423.267 Z M 0 423.267 L 0.5 423.267 L 0.5 143.568 L 0 143.568 L -0.5 143.568 L -0.5 423.267 L 0 423.267 Z" fill="currentColor" fill-rule="nonzero"></path>
</svg>