<svg xmlns="http://www.w3.org/2000/svg" width="294.526" height="8.693" viewBox="0 0 294.526 8.693" fill="none">
  <path d="M -0.024 3.488 C -0.3 3.502 -0.513 3.736 -0.499 4.012 C -0.486 4.288 -0.252 4.5 0.024 4.487 L 0 3.988 L -0.024 3.488 Z M 129.302 0.541 L 129.319 1.041 L 129.302 0.541 Z M 141.575 0.087 L 141.57 -0.413 L 141.575 0.087 Z M 81.391 1.835 L 81.354 1.337 L 81.391 1.835 Z M 70.458 2.916 L 70.372 2.423 L 70.458 2.916 Z M 67.269 3.988 L 66.994 3.57 L 66.994 3.57 L 67.269 3.988 Z M 74.689 4.349 L 74.709 3.849 L 74.689 4.349 Z M 272.598 4.806 L 272.819 5.254 L 272.598 4.806 Z M 269.123 5.221 L 269.14 5.721 L 269.123 5.221 Z M 77.551 7.019 L 77.533 6.52 L 77.551 7.019 Z M 58.913 7.854 L 58.918 8.354 L 58.913 7.854 Z M 52.639 8.291 L 52.596 7.793 L 52.639 8.291 Z M 294.525 9.163 C 294.801 9.164 295.025 8.94 295.026 8.664 C 295.026 8.388 294.802 8.164 294.526 8.163 L 294.526 8.663 L 294.525 9.163 Z M 0 3.988 L 0.024 4.487 C 3.426 4.321 11.002 4.209 19.177 4.042 C 27.342 3.876 36.098 3.656 41.833 3.274 L 41.799 2.775 L 41.766 2.276 C 36.059 2.656 27.326 2.876 19.157 3.043 C 10.999 3.209 3.396 3.322 -0.024 3.488 L 0 3.988 Z M 41.799 2.775 L 41.833 3.274 C 53.252 2.513 70.012 2.672 88.832 2.672 L 88.832 2.172 L 88.832 1.672 C 70.039 1.672 53.229 1.512 41.766 2.276 L 41.799 2.775 Z M 88.832 2.172 L 88.832 2.672 C 107.248 2.672 121.563 1.303 129.319 1.041 L 129.302 0.541 L 129.285 0.041 C 121.434 0.307 107.243 1.672 88.832 1.672 L 88.832 2.172 Z M 129.302 0.541 L 129.319 1.041 C 138.047 0.745 139.879 0.602 141.579 0.587 L 141.575 0.087 L 141.57 -0.413 C 139.858 -0.397 137.971 -0.253 129.285 0.041 L 129.302 0.541 Z M 141.575 0.087 L 141.579 0.587 C 141.765 0.585 141.961 0.581 142.049 0.575 C 142.061 0.574 142.08 0.572 142.1 0.569 C 142.11 0.568 142.129 0.565 142.153 0.56 C 142.165 0.557 142.186 0.551 142.212 0.542 C 142.229 0.536 142.29 0.513 142.354 0.462 C 142.412 0.415 142.591 0.239 142.528 -0.04 C 142.479 -0.254 142.315 -0.347 142.294 -0.36 C 142.216 -0.405 142.143 -0.419 142.142 -0.419 C 142.107 -0.426 142.076 -0.429 142.066 -0.43 C 142.014 -0.435 141.924 -0.439 141.804 -0.442 C 141.301 -0.457 139.974 -0.473 137.058 -0.487 L 137.055 0.013 L 137.053 0.513 C 139.972 0.527 141.287 0.543 141.775 0.557 C 141.836 0.559 141.882 0.561 141.916 0.562 C 141.933 0.563 141.946 0.564 141.956 0.564 C 141.961 0.565 141.965 0.565 141.967 0.565 C 141.97 0.565 141.971 0.565 141.971 0.565 C 141.971 0.565 141.971 0.565 141.969 0.565 C 141.968 0.565 141.966 0.565 141.964 0.565 C 141.96 0.564 141.948 0.562 141.931 0.559 C 141.922 0.557 141.907 0.553 141.888 0.547 C 141.873 0.543 141.833 0.529 141.786 0.502 C 141.765 0.49 141.602 0.397 141.553 0.183 C 141.489 -0.095 141.669 -0.271 141.727 -0.317 C 141.79 -0.368 141.85 -0.391 141.866 -0.397 C 141.891 -0.406 141.911 -0.411 141.921 -0.413 C 141.942 -0.418 141.958 -0.42 141.962 -0.421 C 141.973 -0.422 141.979 -0.423 141.974 -0.422 C 141.925 -0.419 141.766 -0.415 141.57 -0.413 L 141.575 0.087 Z M 137.055 0.013 L 137.058 -0.487 C 131.221 -0.514 118.971 -0.536 107.756 -0.173 L 107.772 0.327 L 107.788 0.827 C 118.984 0.465 131.218 0.486 137.053 0.513 L 137.055 0.013 Z M 107.772 0.327 L 107.756 -0.173 C 96.538 0.19 86.73 0.938 81.354 1.337 L 81.391 1.835 L 81.428 2.334 C 86.805 1.936 96.594 1.189 107.788 0.827 L 107.772 0.327 Z M 81.391 1.835 L 81.354 1.337 C 74.282 1.861 72.38 2.073 70.372 2.423 L 70.458 2.916 L 70.544 3.408 C 72.496 3.068 74.351 2.858 81.428 2.334 L 81.391 1.835 Z M 70.458 2.916 L 70.372 2.423 C 68.53 2.744 67.379 3.317 66.994 3.57 L 67.269 3.988 L 67.544 4.405 C 67.798 4.238 68.817 3.709 70.544 3.408 L 70.458 2.916 Z M 67.269 3.988 L 66.994 3.57 C 66.909 3.626 66.756 3.737 66.68 3.922 C 66.635 4.032 66.617 4.169 66.661 4.311 C 66.701 4.445 66.782 4.536 66.848 4.592 C 66.968 4.694 67.112 4.742 67.207 4.768 C 67.316 4.799 67.44 4.821 67.568 4.838 C 68.072 4.904 68.854 4.916 69.704 4.909 C 71.451 4.894 73.538 4.801 74.668 4.848 L 74.689 4.349 L 74.709 3.849 C 73.551 3.8 71.368 3.895 69.696 3.909 C 68.838 3.916 68.123 3.902 67.698 3.846 C 67.594 3.832 67.522 3.818 67.475 3.805 C 67.414 3.788 67.444 3.786 67.496 3.83 C 67.528 3.857 67.586 3.918 67.617 4.018 C 67.65 4.127 67.635 4.229 67.605 4.303 C 67.559 4.413 67.489 4.442 67.544 4.405 L 67.269 3.988 Z M 74.689 4.349 L 74.668 4.848 C 75.202 4.871 75.731 4.916 108.28 4.973 L 108.28 4.473 L 108.281 3.973 C 75.714 3.916 75.217 3.87 74.709 3.849 L 74.689 4.349 Z M 108.28 4.473 L 108.28 4.973 C 140.837 5.031 205.424 5.099 238.896 5.147 L 238.896 4.647 L 238.897 4.147 C 205.425 4.099 140.839 4.031 108.281 3.973 L 108.28 4.473 Z M 238.896 4.647 L 238.896 5.147 C 255.632 5.172 264.099 5.19 268.36 5.213 C 270.493 5.225 271.567 5.238 272.097 5.252 C 272.229 5.256 272.324 5.26 272.392 5.264 C 272.426 5.265 272.451 5.267 272.47 5.269 C 272.479 5.27 272.486 5.27 272.491 5.271 C 272.493 5.271 272.495 5.271 272.497 5.271 C 272.498 5.272 272.499 5.272 272.498 5.272 C 272.498 5.272 272.497 5.272 272.496 5.271 C 272.494 5.271 272.491 5.27 272.488 5.27 C 272.481 5.268 272.466 5.265 272.446 5.258 C 272.43 5.253 272.389 5.238 272.341 5.208 C 272.299 5.181 272.198 5.107 272.145 4.963 C 272.084 4.793 272.127 4.64 272.181 4.546 C 272.227 4.466 272.283 4.421 272.303 4.405 C 272.328 4.385 272.349 4.373 272.358 4.368 C 272.368 4.362 272.375 4.358 272.376 4.358 L 272.598 4.806 L 272.819 5.254 C 272.823 5.252 272.871 5.23 272.919 5.192 C 272.943 5.174 273.001 5.125 273.048 5.043 C 273.104 4.947 273.147 4.791 273.085 4.619 C 273.031 4.472 272.928 4.396 272.882 4.367 C 272.831 4.334 272.785 4.317 272.761 4.309 C 272.713 4.293 272.668 4.286 272.644 4.282 C 272.549 4.268 272.385 4.26 272.125 4.253 C 271.581 4.238 270.496 4.225 268.365 4.213 C 264.102 4.19 255.633 4.172 238.897 4.147 L 238.896 4.647 Z M 272.598 4.806 L 272.376 4.358 C 272.096 4.496 271.642 4.584 271.038 4.636 C 270.446 4.687 269.784 4.699 269.106 4.721 L 269.123 5.221 L 269.14 5.721 C 269.793 5.699 270.497 5.686 271.124 5.632 C 271.74 5.579 272.358 5.482 272.819 5.254 L 272.598 4.806 Z M 269.123 5.221 L 269.106 4.721 C 268.232 4.751 266.942 4.856 240.739 5.005 L 240.741 5.505 L 240.744 6.005 C 266.946 5.856 268.249 5.751 269.14 5.721 L 269.123 5.221 Z M 240.741 5.505 L 240.739 5.005 C 214.538 5.154 163.469 5.359 130.884 5.628 L 130.888 6.128 L 130.892 6.628 C 163.476 6.359 214.54 6.154 240.744 6.005 L 240.741 5.505 Z M 130.888 6.128 L 130.884 5.628 C 98.297 5.897 85.737 6.224 77.533 6.52 L 77.551 7.019 L 77.569 7.519 C 85.76 7.223 98.309 6.897 130.892 6.628 L 130.888 6.128 Z M 77.551 7.019 L 77.533 6.52 C 65.819 6.942 61.04 7.334 58.909 7.354 L 58.913 7.854 L 58.918 8.354 C 61.054 8.334 65.929 7.939 77.569 7.519 L 77.551 7.019 Z M 58.913 7.854 L 58.909 7.354 C 56.859 7.373 54.773 7.602 52.596 7.793 L 52.639 8.291 L 52.683 8.789 C 54.892 8.595 56.919 8.373 58.918 8.354 L 58.913 7.854 Z M 52.639 8.291 L 52.596 7.793 C 52.338 7.815 52.109 7.852 51.899 7.889 C 51.684 7.927 51.504 7.963 51.313 7.989 L 51.382 8.485 L 51.451 8.98 C 51.667 8.95 51.88 8.908 52.074 8.874 C 52.273 8.839 52.469 8.808 52.683 8.789 L 52.639 8.291 Z M 51.382 8.485 L 51.313 7.989 C 51.309 7.99 51.24 7.998 51.188 8.012 C 51.184 8.013 51.116 8.03 51.044 8.075 C 51.021 8.09 50.888 8.172 50.833 8.35 C 50.755 8.601 50.889 8.792 50.974 8.869 C 51.045 8.934 51.116 8.961 51.136 8.969 C 51.166 8.98 51.191 8.986 51.205 8.99 C 51.233 8.996 51.258 9 51.271 9.001 C 51.357 9.012 51.547 9.018 51.897 9.024 C 52.629 9.036 54.192 9.048 57.414 9.061 C 63.859 9.088 76.956 9.118 103.358 9.163 L 103.359 8.663 L 103.36 8.163 C 76.957 8.118 63.862 8.088 57.418 8.061 C 54.195 8.048 52.639 8.036 51.914 8.024 C 51.733 8.021 51.606 8.018 51.519 8.015 C 51.476 8.013 51.444 8.012 51.422 8.011 C 51.397 8.009 51.39 8.008 51.394 8.009 C 51.394 8.009 51.409 8.01 51.43 8.015 C 51.44 8.018 51.463 8.023 51.49 8.034 C 51.508 8.04 51.578 8.067 51.648 8.131 C 51.732 8.207 51.866 8.397 51.788 8.647 C 51.732 8.825 51.601 8.906 51.579 8.92 C 51.537 8.947 51.501 8.96 51.487 8.965 C 51.47 8.972 51.456 8.976 51.448 8.978 C 51.422 8.985 51.404 8.986 51.451 8.98 L 51.382 8.485 Z M 103.359 8.663 L 103.358 9.163 C 156.16 9.254 239.685 9.102 294.525 9.163 L 294.526 8.663 L 294.526 8.163 C 239.675 8.102 156.167 8.254 103.36 8.163 L 103.359 8.663 Z" fill="#e1a1b1" fill-rule="nonzero"></path>
</svg>