<svg xmlns="http://www.w3.org/2000/svg" width="359.848" height="617.133" viewBox="0 0 359.848 617.133" fill="none">
  <path d="M 337.869 432.634 C 338.24 440.032 338.889 448.172 339.167 451.317 C 339.723 453.403 340.206 458.66 337.683 462.994 C 331.748 469.422 319.136 471.402 313.572 471.589 C 311.563 479.529 306.877 496.419 304.206 500.455 C 300.868 505.499 299.199 520.353 298.457 523.996 C 297.715 527.639 297.993 540.624 298.457 542.866 C 298.92 545.108 306.339 549.592 309.678 556.692 C 313.016 563.792 321.733 567.528 326.555 570.798 C 331.377 574.067 342.413 580.607 345.566 589.014 C 348.719 597.422 331.934 597.048 327.297 597.889 C 322.66 598.73 314.222 596.488 306.339 594.339 C 298.457 592.19 288.534 581.074 282.414 580.607 C 276.293 580.14 257.654 573.6 253.944 572.012 C 250.235 570.424 250.42 558.84 250.513 558.373 C 250.606 557.906 251.719 557.159 251.904 556.692 C 252.089 556.225 253.48 554.917 254.779 553.703 C 256.077 552.488 255.892 553.329 257.654 552.488 C 259.415 551.647 259.23 550.526 259.694 549.592 C 260.157 548.658 260.621 548.471 262.568 547.35 C 264.516 546.229 263.403 546.603 264.052 544.548 C 264.701 542.492 264.701 539.129 265.258 537.915 C 265.814 536.701 268.04 536.14 268.596 534.832 C 269.153 533.524 269.524 530.535 270.265 528.48 C 271.007 526.425 270.08 522.034 270.265 520.633 C 270.451 519.232 271.749 517.643 271.842 515.308 C 271.916 513.44 271.44 501.825 271.193 496.251 C 270.42 494.165 268.819 488.31 268.596 481.584 C 268.374 474.858 270.482 465.33 271.564 461.406 C 272.058 459.476 273.066 455.446 273.14 454.774 C 273.233 453.933 273.047 451.317 271.564 447.487 C 270.08 443.657 270.08 438.332 270.08 435.997 C 270.08 433.661 269.524 431.233 268.689 429.458 C 267.854 427.683 268.689 423.292 268.689 421.891 C 268.689 420.49 267.854 417.687 266.834 414.044 C 265.814 410.4 266.278 406.197 265.35 402.74 C 264.609 399.975 262.878 399.408 262.105 399.471 C 257.87 419.991 249.252 461.817 248.658 464.956 C 248.065 468.095 244.702 472.99 243.094 475.045 C 243.063 476.696 243.113 480.893 243.558 484.48 C 244.114 488.964 245.505 505.966 245.413 510.731 C 245.32 515.495 244.207 537.168 244.3 538.662 C 244.392 540.157 243.001 543.707 243.836 549.405 C 244.504 553.964 246.093 565.691 246.804 570.985 C 248.535 575.157 252.034 583.652 252.182 584.25 C 252.331 584.848 259.972 603.868 263.774 613.303 C 248.287 611.497 217.277 607.511 217.129 606.016 C 216.943 604.148 218.241 601.065 219.354 599.103 C 220.244 597.534 223.187 595.834 224.547 595.18 C 225.042 594.09 226.013 590.229 225.938 583.503 C 225.864 576.777 222.507 567.809 220.838 564.165 C 219.663 561.861 217.314 555.963 217.314 550.807 C 209.45 538.251 203.095 510.637 200.9 498.4 L 188.752 496.905 C 185.012 496.251 176.474 495.335 172.245 496.905 C 170.112 502.884 169.185 535.299 168.072 548.191 C 167.182 558.504 165.475 597.827 164.734 616.199 L 137.47 617.133 L 135.893 599.664 C 134.348 590.976 131.108 569.042 130.515 550.807 C 129.773 528.013 136.45 495.597 136.542 493.448 C 136.635 491.3 135.244 491.02 133.575 489.151 C 125.321 487.75 91.752 488.31 87.578 488.404 C 83.405 488.497 78.491 488.778 76.45 490.926 C 74.41 493.075 76.821 495.784 74.874 497.372 C 72.926 498.96 68.012 498.026 63.653 498.213 C 59.294 498.4 57.44 501.202 53.359 504.005 C 49.279 506.807 41.211 511.852 37.78 515.401 C 34.349 518.951 29.805 519.325 28.043 521.1 C 26.281 522.875 19.79 532.497 17.286 536.701 C 14.782 540.904 11.907 544.454 6.436 542.306 C 0.964 540.157 -0.241 537.915 0.037 523.622 C 0.315 509.329 5.601 503.537 6.436 499.988 C 7.27 496.438 12.927 488.217 14.689 485.041 C 16.451 481.865 24.797 464.489 30.454 452.065 C 37.595 433.661 50.021 425.908 50.948 424.88 C 51.876 423.853 52.525 425.814 52.432 426.935 C 52.339 428.056 53.174 428.617 55.029 430.018 C 56.883 431.419 58.182 433.475 59.665 434.315 C 61.149 435.156 62.633 438.893 64.117 438.986 C 65.6 439.08 67.919 442.349 68.661 443.564 C 69.402 444.778 71.443 443.937 72.092 444.591 C 72.741 445.245 74.503 445.992 75.801 445.245 C 77.099 444.498 79.974 441.135 81.272 440.294 C 82.571 439.453 83.405 439.453 84.147 442.069 C 84.889 444.685 82.942 445.992 83.405 446.927 C 83.869 447.861 85.167 450.196 86.002 451.411 C 86.67 452.382 88.258 453.435 88.969 453.84 L 133.575 452.438 C 134.873 452.345 137.674 451.859 138.49 450.663 C 138.786 444.685 137.191 422.638 136.357 412.362 C 135.893 411.771 134.892 410.531 134.595 410.307 C 134.224 410.027 134.873 408.065 134.595 406.197 C 134.317 404.328 132.926 402.74 122.447 387.513 C 111.541 371.147 106.033 346.814 104.642 336.694 C 103.498 337.099 99.189 337.666 91.102 336.694 C 71.294 333.63 66.28 314.554 66.249 305.4 C 66.219 305.026 65.99 304.166 65.322 303.718 C 64.488 303.158 63.746 301.756 64.673 295.497 C 65.6 289.238 69.032 279.71 69.681 278.215 C 70.33 276.72 71.628 274.945 71.628 274.292 L 71.628 271.489 C 71.875 270.773 72.333 269.042 72.184 267.846 C 71.999 266.351 72.463 264.483 72.555 263.362 C 72.648 262.241 75.337 260.559 74.874 259.999 C 74.41 259.438 74.688 257.757 74.688 257.009 C 74.688 256.412 76.172 252.588 76.914 250.75 L 77.192 248.041 C 77.316 247.045 77.563 244.884 77.563 244.211 C 77.563 243.539 78.243 242.312 78.583 241.782 L 86.373 188.254 C 84.271 186.386 78.416 180.837 71.814 173.588 C 63.56 164.526 62.911 166.488 60.129 160.136 C 57.347 153.783 54.658 147.151 53.545 138.183 C 52.655 131.008 55.709 125.353 57.347 123.423 C 58.398 121.897 60.203 117.612 59.016 112.68 C 57.532 106.514 56.141 89.512 57.254 87.831 C 58.367 86.149 61.149 82.599 61.149 74.472 C 59.851 60.74 66.713 42.523 68.753 38.413 C 70.793 34.303 77.841 28.417 79.789 27.67 C 81.736 26.923 85.538 23.933 88.598 24.401 C 91.659 24.868 95.183 24.12 97.315 23.466 C 99.448 22.812 105.569 24.027 119.293 34.022 C 136.728 49.156 145.537 74.752 146.279 77.088 C 147.021 79.423 147.021 87.644 147.114 90.82 C 147.207 93.996 151.936 100.068 153.513 101.189 C 155.089 102.31 157.871 101.003 159.818 100.349 C 161.766 99.695 164.084 98.947 166.588 98.761 C 169.092 98.574 170.39 95.958 172.523 94.744 C 174.656 93.529 177.623 92.969 179.942 94.744 C 181.797 96.164 184.239 96.145 185.228 95.958 C 193.636 93.249 211.323 87.607 214.81 86.71 C 213.883 84.841 212.399 78.209 212.121 76.154 C 211.842 74.098 210.915 71.483 209.246 67.372 C 207.577 63.262 206.186 53.734 206.186 51.959 C 206.186 50.184 207.206 50.184 208.133 49.81 C 209.06 49.436 209.06 48.969 208.782 47.381 C 207.391 43.177 205.908 35.704 207.02 33.462 C 208.133 31.22 208.319 23.466 208.597 22.065 C 208.875 20.664 210.915 15.806 211.657 15.246 C 212.399 14.685 217.592 9.641 222.785 5.717 C 227.978 1.794 234.841 0.205 241.239 0.019 C 247.638 -0.168 251.904 1.046 258.673 4.036 C 265.443 7.025 268.689 14.125 269.431 15.339 C 270.173 16.553 271.193 21.598 272.213 24.681 C 273.205 27.68 272.617 35.633 272.414 38.384 L 272.398 38.6 C 272.213 41.122 273.047 42.99 272.769 43.831 C 272.491 44.672 271.934 45.606 272.398 46.634 C 272.862 47.661 273.604 45.886 274.716 46.634 C 275.829 47.381 275.551 52.145 275.366 53.266 C 275.18 54.387 273.604 60.833 273.047 63.355 C 272.491 65.878 272.398 72.323 271.656 74.379 C 270.914 76.434 269.431 86.336 269.245 89.606 C 269.06 92.875 273.418 90.82 274.902 90.913 C 276.386 91.007 275.922 89.699 276.571 87.831 C 277.22 85.962 281.672 85.682 282.043 85.308 C 282.414 84.935 283.712 84.468 285.103 84.281 C 286.494 84.094 290.667 82.973 292.058 82.506 C 293.449 82.039 295.86 83.533 296.602 84.468 C 297.344 85.402 298.086 85.402 299.384 85.682 C 300.682 85.962 301.331 87.177 301.517 88.204 C 301.702 89.232 304.484 91.381 306.339 93.716 C 308.194 96.051 310.605 100.442 310.419 101.937 L 310.408 102.029 C 310.232 103.436 310.213 103.582 313.572 106.234 C 317.003 108.943 329.059 115.108 331.656 116.603 C 334.252 118.098 338.889 125.571 339.352 126.692 C 339.816 127.813 339.26 128.467 339.723 130.149 C 340.187 131.83 342.227 135.193 342.413 136.875 C 342.598 138.556 342.413 139.677 342.691 140.425 C 342.969 141.172 342.32 142.667 341.949 142.947 C 341.578 143.227 341.485 144.441 341.207 147.337 C 340.985 149.654 339.445 151.417 338.703 152.008 C 342.784 162.658 351.167 184.536 352.057 186.853 C 353.17 189.749 359.754 203.107 359.847 204.322 C 359.94 205.536 354.097 207.778 352.057 208.713 C 350.017 209.647 342.876 211.422 341.671 213.01 C 341.114 217.12 344.731 233.375 345.38 237.578 C 346.029 241.782 348.44 267.005 348.904 272.703 C 349.368 278.402 348.904 310.35 348.904 315.395 C 348.904 320.44 351.315 330.062 350.388 332.117 C 349.461 334.172 350.017 337.722 351.315 347.344 C 352.613 356.966 352.243 367.148 351.315 370.978 C 350.388 374.808 347.699 377.704 346.678 379.853 C 345.658 382.001 342.32 383.216 341.671 384.617 C 341.022 386.018 337.312 386.299 336.663 389.101 C 336.014 391.904 337.405 423.385 337.869 432.634 Z" fill="currentColor" fill-rule="nonzero"></path>
</svg>