<svg xmlns="http://www.w3.org/2000/svg" width="571.845" height="762.484" viewBox="0 0 571.845 762.484" fill="none">
  <path d="M 571.845 762.484 L 0 762.484 L 0 0 L 571.845 0 L 571.845 762.484 Z M 186.08 336.34 C 185.74 336.453 185.155 336.534 184.385 336.577 C 183.628 336.619 182.737 336.623 181.812 336.604 C 179.961 336.564 178 336.429 176.762 336.316 L 176.286 336.273 L 176.221 336.746 L 171.461 371.427 C 170.894 375.055 170.044 380.601 169.335 385.443 C 168.981 387.864 168.661 390.112 168.431 391.856 C 168.203 393.579 168.055 394.859 168.055 395.31 C 168.055 395.778 167.975 396.424 167.857 397.225 C 167.742 398.011 167.592 398.939 167.464 399.922 C 167.207 401.889 167.028 404.16 167.381 406.275 C 167.708 408.237 167.547 410.044 167.213 411.796 C 167.046 412.674 166.837 413.533 166.624 414.395 C 166.412 415.252 166.196 416.114 166.023 416.978 C 165.853 417.828 165.757 418.472 165.77 418.979 C 165.782 419.512 165.915 419.926 166.215 420.286 C 166.486 420.612 166.877 420.866 167.298 421.133 C 167.737 421.411 168.273 421.741 168.935 422.237 C 169.689 422.803 170.994 423.334 172.462 423.802 C 173.949 424.276 175.667 424.704 177.293 425.047 C 178.919 425.389 180.466 425.648 181.612 425.777 C 182.182 425.842 182.67 425.877 183.024 425.871 C 183.196 425.868 183.368 425.855 183.512 425.818 C 183.581 425.801 183.683 425.767 183.779 425.697 C 183.88 425.624 184.001 425.483 184.015 425.275 C 184.021 425.265 184.04 425.234 184.091 425.185 C 184.186 425.092 184.336 424.984 184.531 424.872 C 184.914 424.653 185.384 424.463 185.704 424.355 C 189.334 423.448 194.732 422.057 199.16 420.822 C 201.378 420.204 203.36 419.624 204.756 419.162 C 205.45 418.933 206.015 418.727 206.395 418.558 C 206.577 418.476 206.751 418.388 206.876 418.294 C 206.93 418.253 207.034 418.17 207.1 418.038 C 207.137 417.963 207.17 417.852 207.153 417.72 C 207.141 417.626 207.106 417.547 207.062 417.482 C 207.057 417.449 207.054 417.393 207.057 417.31 C 207.064 417.112 207.102 416.83 207.171 416.473 C 207.307 415.762 207.553 414.818 207.854 413.78 C 208.457 411.707 209.27 409.303 209.835 407.722 L 210.007 407.24 L 209.522 407.079 C 206.873 406.196 200.898 402.954 198.257 397.144 C 194.915 389.792 196.261 383.175 196.261 379.666 C 196.261 379.066 196.467 378.093 196.835 376.865 C 197.198 375.654 197.703 374.243 198.268 372.79 C 199.396 369.884 200.751 366.835 201.654 364.915 L 201.767 364.677 L 201.634 364.45 C 199.255 360.372 195.652 354.084 192.577 348.478 C 191.039 345.674 189.635 343.044 188.583 340.947 C 188.057 339.899 187.62 338.988 187.3 338.258 C 186.973 337.514 186.785 336.997 186.729 336.717 L 186.618 336.161 L 186.08 336.34 Z" fill="currentColor" fill-rule="nonzero"></path>
</svg>