<svg xmlns="http://www.w3.org/2000/svg" width="331.566" height="596.845" viewBox="0 0 331.566 596.845" fill="none">
  <path d="M 140.313 144.947 L 137.298 152.357 L 139.936 153.43 L 142.66 152.595 L 140.313 144.947 Z M 155.887 140.452 L 157.666 148.251 L 159.723 147.782 L 161.281 146.36 L 155.887 140.452 Z M 167.852 121.079 L 160.892 117.135 L 160.892 117.135 L 167.852 121.079 Z M 169.625 118.61 L 174.691 124.802 L 179.776 120.641 L 176.683 114.844 L 169.625 118.61 Z M 161.648 104.619 L 155.466 109.697 L 155.466 109.697 L 161.648 104.619 Z M 152.152 73.218 L 151.885 65.222 L 152.152 73.218 Z M 152.975 69.482 L 145.233 71.499 L 145.678 73.209 L 146.802 74.572 L 152.975 69.482 Z M 147.593 31.814 L 155.195 34.305 L 147.593 31.814 Z M 169.118 4.211 L 165.462 -2.904 L 165.161 -2.75 L 164.874 -2.57 L 169.118 4.211 Z M 242.873 148.492 L 236.06 152.685 L 236.605 153.571 L 237.359 154.288 L 242.873 148.492 Z M 280.035 203.761 L 272.036 203.88 L 272.043 204.337 L 272.102 204.791 L 280.035 203.761 Z M 291.938 286.569 L 299.314 283.473 L 291.938 286.569 Z M 295.293 302.966 L 287.299 303.292 L 287.344 304.394 L 287.686 305.442 L 295.293 302.966 Z M 297.572 309.613 L 305.111 306.938 L 305.111 306.938 L 297.572 309.613 Z M 295.863 406.729 L 287.88 407.261 L 295.863 406.729 Z M 286.936 381.975 L 294.402 379.101 L 294.057 378.206 L 293.512 377.418 L 286.936 381.975 Z M 281.935 374.758 L 288.51 370.201 L 278.212 355.34 L 274.14 372.957 L 281.935 374.758 Z M 278.579 390.965 L 270.583 390.707 L 278.579 390.965 Z M 284.53 504.668 L 276.661 506.11 L 284.53 504.668 Z M 290.671 539.614 L 298.595 538.514 L 298.577 538.379 L 298.553 538.246 L 290.671 539.614 Z M 289.912 558.417 L 297.014 562.1 L 297.014 562.1 L 289.912 558.417 Z M 216.98 566.584 L 209.98 570.456 L 209.98 570.456 L 216.98 566.584 Z M 211.978 555.568 L 219.361 552.487 L 217.393 547.77 L 212.286 547.574 L 211.978 555.568 Z M 209.573 557.594 L 202.054 554.86 L 209.573 557.594 Z M 117.078 573.611 L 109.106 572.949 L 108.319 582.412 L 117.779 581.58 L 117.078 573.611 Z M 120.877 527.902 L 112.95 526.822 L 112.922 527.03 L 112.904 527.24 L 120.877 527.902 Z M 126.068 489.79 L 133.995 490.87 L 134.276 488.808 L 133.517 486.871 L 126.068 489.79 Z M 117.395 447.753 L 125.395 447.8 L 125.412 444.94 L 123.611 442.717 L 117.395 447.753 Z M 109.734 435.851 L 101.884 437.39 L 109.734 435.851 Z M 82.069 409.578 L 77.98 416.454 L 77.98 416.454 L 82.069 409.578 Z M 76.434 403.943 L 84.023 401.413 L 83.409 399.569 L 82.016 398.212 L 76.434 403.943 Z M 44.02 368.364 L 50.638 363.869 L 50.585 363.791 L 50.53 363.714 L 44.02 368.364 Z M 13.188 321.135 L 19.936 316.838 L 19.846 316.697 L 19.751 316.56 L 13.188 321.135 Z M 0.084 293.849 L -7.758 292.266 L 0.084 293.849 Z M 45.413 230.224 L 39.693 224.631 L 39.693 224.631 L 45.413 230.224 Z M 66.938 207.812 L 72.795 213.261 L 73.158 212.871 L 73.466 212.437 L 66.938 207.812 Z M 72.446 199.772 L 79.266 203.953 L 80.446 202.029 L 80.446 199.772 L 72.446 199.772 Z M 140.313 144.947 L 142.66 152.595 C 146.783 151.329 155.138 148.828 157.666 148.251 L 155.887 140.452 L 154.108 132.652 C 150.862 133.392 141.819 136.116 137.966 137.299 L 140.313 144.947 Z M 155.887 140.452 L 161.281 146.36 C 162.825 144.95 163.614 143.381 164.023 142.463 C 164.226 142.008 164.398 141.565 164.503 141.295 C 164.626 140.976 164.7 140.786 164.783 140.588 C 164.992 140.09 165.235 139.567 166.09 138.77 L 160.635 132.918 L 155.18 127.066 C 152.299 129.751 150.897 132.33 150.03 134.396 C 149.844 134.839 149.683 135.257 149.586 135.509 C 149.469 135.81 149.431 135.902 149.412 135.943 C 149.378 136.019 149.677 135.289 150.493 134.544 L 155.887 140.452 Z M 160.635 132.918 L 166.09 138.77 C 168.971 136.084 171.011 132.619 172.321 130.129 C 173.013 128.814 173.596 127.579 174.037 126.641 C 174.268 126.149 174.439 125.782 174.592 125.465 C 174.753 125.131 174.814 125.019 174.812 125.023 L 167.852 121.079 L 160.892 117.135 C 160.429 117.952 159.903 119.097 159.554 119.84 C 159.124 120.756 158.671 121.709 158.16 122.681 C 157.064 124.765 156.034 126.27 155.18 127.066 L 160.635 132.918 Z M 167.852 121.079 L 174.812 125.023 C 175.083 124.546 175.274 124.279 175.345 124.185 C 175.382 124.136 175.372 124.154 175.31 124.222 C 175.279 124.257 175.221 124.32 175.136 124.403 C 175.093 124.445 175.037 124.499 174.968 124.562 C 174.901 124.623 174.808 124.706 174.691 124.802 L 169.625 118.61 L 164.559 112.419 C 163.194 113.536 161.932 115.3 160.892 117.135 L 167.852 121.079 Z M 169.625 118.61 L 176.683 114.844 C 175.578 112.774 173.847 109.579 172.235 106.705 C 171.432 105.273 170.635 103.879 169.949 102.731 C 169.391 101.794 168.573 100.446 167.83 99.541 L 161.648 104.619 L 155.466 109.697 C 155.305 109.5 155.504 109.747 156.21 110.931 C 156.79 111.902 157.507 113.154 158.281 114.533 C 159.823 117.282 161.498 120.373 162.567 122.377 L 169.625 118.61 Z M 161.648 104.619 L 167.83 99.541 C 168.089 99.857 168.064 99.883 167.563 99.05 C 167.185 98.422 166.687 97.559 166.098 96.512 C 164.925 94.425 163.469 91.744 162.032 89.015 C 160.593 86.28 159.204 83.557 158.155 81.376 C 157.628 80.28 157.216 79.383 156.933 78.72 C 156.548 77.816 156.653 77.917 156.767 78.486 L 148.923 80.055 L 141.078 81.624 C 141.334 82.906 141.899 84.253 142.213 84.991 C 142.631 85.971 143.16 87.113 143.738 88.315 C 144.901 90.731 146.385 93.638 147.874 96.467 C 149.365 99.301 150.893 102.115 152.153 104.355 C 152.78 105.471 153.361 106.48 153.849 107.292 C 154.215 107.901 154.843 108.938 155.466 109.697 L 161.648 104.619 Z M 148.923 80.055 L 156.767 78.486 C 156.688 78.09 156.655 77.781 156.65 77.585 C 156.643 77.355 156.682 77.517 156.558 77.927 C 156.42 78.384 156.014 79.336 154.992 80.162 C 153.926 81.023 152.871 81.198 152.418 81.213 L 152.152 73.218 L 151.885 65.222 C 149.533 65.301 147.054 66.006 144.937 67.716 C 142.864 69.391 141.782 71.509 141.24 73.304 C 140.254 76.571 140.721 79.84 141.078 81.624 L 148.923 80.055 Z M 152.152 73.218 L 152.418 81.213 C 154.039 81.159 156.697 80.777 158.981 78.771 C 161.605 76.467 162.199 73.424 162.058 71.244 C 161.932 69.309 161.254 67.764 160.793 66.876 C 160.286 65.897 159.691 65.053 159.147 64.393 L 152.975 69.482 L 146.802 74.572 C 146.754 74.514 146.684 74.424 146.59 74.242 C 146.543 74.152 146.167 73.446 146.091 72.282 C 146 70.873 146.393 68.532 148.422 66.75 C 150.112 65.265 151.784 65.226 151.885 65.222 L 152.152 73.218 Z M 152.975 69.482 L 160.716 67.466 C 159.449 62.601 157.665 54.921 156.448 47.795 C 155.838 44.222 155.396 40.936 155.214 38.283 C 155.007 35.261 155.234 34.187 155.195 34.305 L 147.593 31.814 L 139.991 29.322 C 138.965 32.454 139.044 36.34 139.251 39.376 C 139.485 42.781 140.021 46.652 140.676 50.488 C 141.989 58.178 143.884 66.319 145.233 71.499 L 152.975 69.482 Z M 147.593 31.814 L 155.195 34.305 C 156.513 30.285 157.453 27.041 159.789 23.41 C 162.056 19.886 165.907 15.659 173.363 10.992 L 169.118 4.211 L 164.874 -2.57 C 155.743 3.146 150.065 8.953 146.334 14.752 C 142.672 20.443 141.143 25.809 139.991 29.322 L 147.593 31.814 Z M 169.118 4.211 L 172.775 11.326 C 179.784 7.725 186.518 7.83 196.655 8.155 L 196.911 0.159 L 197.167 -7.837 C 187.551 -8.145 176.686 -8.672 165.462 -2.904 L 169.118 4.211 Z M 196.911 0.159 L 196.655 8.155 C 204.298 8.4 211.384 11.932 216.708 16.048 L 221.601 9.719 L 226.495 3.39 C 219.536 -1.99 209.276 -7.449 197.167 -7.837 L 196.911 0.159 Z M 221.601 9.719 L 216.708 16.048 C 217.237 16.457 218.233 17.518 219.565 19.498 C 220.823 21.369 222.103 23.638 223.311 26.025 C 225.742 30.827 227.608 35.552 228.216 37.323 L 235.783 34.726 L 243.349 32.128 C 242.501 29.658 240.347 24.254 237.586 18.799 C 236.199 16.059 234.59 13.168 232.841 10.568 C 231.166 8.077 229.036 5.355 226.495 3.39 L 221.601 9.719 Z M 235.783 34.726 L 228.216 37.323 C 228.615 38.485 228.957 40.667 229.291 43.574 C 229.432 44.81 229.588 46.306 229.735 47.45 C 229.849 48.34 230.074 50.126 230.614 51.598 L 238.125 48.844 L 245.636 46.09 C 245.828 46.612 245.768 46.688 245.605 45.417 C 245.475 44.398 245.361 43.278 245.187 41.752 C 244.887 39.136 244.406 35.208 243.349 32.128 L 235.783 34.726 Z M 238.125 48.844 L 230.614 51.598 C 230.409 51.038 230.445 50.819 230.494 51.381 C 230.531 51.806 230.55 52.358 230.561 53.071 C 230.57 53.642 230.575 54.585 230.604 55.266 C 230.618 55.617 230.647 56.162 230.728 56.737 C 230.769 57.023 230.845 57.488 230.997 58.027 C 231.109 58.427 231.454 59.593 232.358 60.798 L 238.758 55.998 L 245.158 51.198 C 245.63 51.827 245.911 52.401 246.069 52.765 C 246.233 53.147 246.335 53.469 246.395 53.683 C 246.512 54.095 246.558 54.405 246.572 54.509 C 246.602 54.72 246.598 54.796 246.59 54.6 C 246.573 54.19 246.574 53.732 246.559 52.815 C 246.547 52.04 246.522 51.018 246.434 50.002 C 246.39 49.486 246.323 48.896 246.214 48.283 C 246.11 47.694 245.94 46.918 245.636 46.09 L 238.125 48.844 Z M 238.758 55.998 L 232.358 60.798 C 233.546 62.382 235.01 63.155 235.949 63.522 C 236.886 63.889 237.702 64.013 238.18 64.064 C 239.109 64.164 239.907 64.1 240.24 64.071 C 240.649 64.035 241.043 63.981 241.273 63.95 C 241.564 63.911 241.71 63.89 241.872 63.87 C 242.021 63.853 242.051 63.853 242.008 63.855 C 241.984 63.856 241.723 63.869 241.321 63.817 C 240.962 63.771 240.074 63.625 239.037 63.059 C 237.873 62.424 236.57 61.272 235.817 59.482 L 243.19 56.378 L 250.563 53.273 C 249.682 51.182 248.158 49.809 246.701 49.014 C 245.372 48.289 244.122 48.045 243.353 47.947 C 241.885 47.759 240.53 47.917 239.981 47.983 C 239.644 48.023 239.294 48.072 239.114 48.096 C 238.874 48.129 238.824 48.134 238.839 48.132 C 238.856 48.131 238.951 48.123 239.096 48.12 C 239.229 48.117 239.515 48.115 239.894 48.156 C 240.237 48.193 240.938 48.293 241.781 48.622 C 242.625 48.953 244.017 49.677 245.158 51.198 L 238.758 55.998 Z M 243.19 56.378 L 235.817 59.482 C 235.464 58.644 235.411 58.031 235.532 58.721 C 235.589 59.044 235.665 59.54 235.755 60.211 C 235.934 61.536 236.136 63.284 236.335 65.146 C 236.736 68.914 237.082 72.806 237.166 74.248 L 245.152 73.787 L 253.139 73.327 C 253.032 71.477 252.651 67.265 252.245 63.452 C 252.039 61.524 251.819 59.611 251.612 58.074 C 251.509 57.313 251.401 56.577 251.291 55.951 C 251.245 55.692 251.042 54.412 250.563 53.273 L 243.19 56.378 Z M 245.152 73.787 L 237.166 74.248 C 237.365 77.712 238.471 88.095 239.22 91.69 L 247.051 90.058 L 254.883 88.426 C 254.366 85.943 253.319 76.447 253.139 73.327 L 245.152 73.787 Z M 247.051 90.058 L 239.22 91.69 C 239.217 91.675 239.3 92.221 239.321 93.52 C 239.34 94.683 239.305 96.111 239.216 97.636 C 239.028 100.822 238.638 103.771 238.233 105.326 L 245.975 107.341 L 253.717 109.356 C 254.516 106.289 254.98 102.117 255.188 98.576 C 255.384 95.253 255.442 91.108 254.883 88.426 L 247.051 90.058 Z M 245.975 107.341 L 238.233 105.326 C 237.319 108.84 237.376 112.306 237.44 114.599 C 237.477 115.916 237.516 116.74 237.512 117.575 C 237.509 118.39 237.457 118.64 237.466 118.601 L 245.279 120.32 L 253.092 122.038 C 253.449 120.416 253.508 118.83 253.512 117.638 C 253.517 116.464 253.461 115.108 253.434 114.153 C 253.371 111.904 253.429 110.464 253.717 109.356 L 245.975 107.341 Z M 245.279 120.32 L 237.466 118.601 C 237.546 118.234 237.55 118.438 237.026 119.394 C 236.588 120.193 235.992 121.141 235.33 122.107 C 234.675 123.064 234.022 123.943 233.511 124.59 C 233.253 124.916 233.064 125.141 232.952 125.268 C 232.896 125.332 232.891 125.335 232.929 125.296 C 232.95 125.275 233.001 125.223 233.077 125.152 C 233.145 125.088 233.292 124.954 233.499 124.791 L 238.441 131.082 L 243.384 137.373 C 244.145 136.775 244.762 136.068 244.97 135.831 C 245.318 135.434 245.691 134.982 246.061 134.514 C 246.806 133.572 247.676 132.397 248.533 131.146 C 249.382 129.905 250.286 128.49 251.057 127.083 C 251.742 125.834 252.663 123.988 253.092 122.038 L 245.279 120.32 Z M 238.441 131.082 L 233.499 124.791 C 232.282 125.748 231.187 127.161 230.652 129.002 C 230.145 130.746 230.312 132.28 230.558 133.301 C 230.986 135.082 231.909 136.33 232.174 136.691 C 232.783 137.519 233.774 138.567 234.005 138.822 C 235.097 140.034 235.181 140.377 235.143 140.234 L 242.873 138.173 L 250.603 136.111 C 250.051 134.04 249.112 132.347 248.259 131.084 C 247.408 129.823 246.502 128.789 245.886 128.106 C 245.414 127.582 245.458 127.641 245.143 127.289 C 244.941 127.063 244.965 127.077 245.061 127.208 C 245.118 127.285 245.269 127.495 245.442 127.811 C 245.603 128.102 245.91 128.709 246.114 129.561 C 246.325 130.436 246.489 131.84 246.016 133.467 C 245.515 135.192 244.49 136.503 243.384 137.373 L 238.441 131.082 Z M 242.873 138.173 L 235.143 140.234 C 235.031 139.812 235.231 139.345 234.687 141.771 C 234.285 143.566 233.233 148.091 236.06 152.685 L 242.873 148.492 L 249.686 144.299 C 250.488 145.601 249.942 146.865 250.299 145.273 C 250.416 144.753 250.781 143.306 250.954 141.915 C 251.15 140.347 251.198 138.341 250.603 136.111 L 242.873 138.173 Z M 242.873 148.492 L 237.359 154.288 C 239.246 156.083 241.45 157.576 243.344 158.768 C 244.88 159.735 247.65 161.362 248.796 162.071 L 253.003 155.266 L 257.209 148.461 C 254.873 147.017 253.876 146.492 251.867 145.227 C 250.216 144.188 249.096 143.37 248.387 142.696 L 242.873 148.492 Z M 253.003 155.266 L 248.796 162.071 C 248.761 162.049 248.837 162.095 249.055 162.255 C 249.257 162.404 249.523 162.608 249.852 162.87 C 250.511 163.396 251.337 164.088 252.288 164.916 C 254.188 166.57 256.465 168.662 258.708 170.844 C 260.962 173.037 263.099 175.242 264.755 177.132 C 266.664 179.312 267.205 180.268 267.16 180.161 L 274.528 177.044 L 281.895 173.927 C 280.805 171.351 278.569 168.62 276.79 166.59 C 274.758 164.269 272.297 161.742 269.866 159.377 C 267.424 157.001 264.93 154.708 262.794 152.849 C 260.833 151.141 258.716 149.393 257.209 148.461 L 253.003 155.266 Z M 274.528 177.044 L 267.16 180.161 C 267.924 181.968 269.145 185.976 270.204 190.791 C 271.256 195.575 271.985 200.419 272.036 203.88 L 280.035 203.761 L 288.035 203.641 C 287.96 198.619 286.979 192.574 285.831 187.355 C 284.69 182.167 283.22 177.059 281.895 173.927 L 274.528 177.044 Z M 280.035 203.761 L 272.102 204.791 C 273.425 214.98 275.535 224.186 277.316 231.691 L 285.1 229.844 L 292.884 227.997 C 291.119 220.561 289.178 212.04 287.969 202.73 L 280.035 203.761 Z M 285.1 229.844 L 277.316 231.691 C 278.205 235.436 278.943 238.251 279.389 240.064 C 279.869 242.013 280.04 242.923 280.109 243.673 L 288.076 242.949 L 296.043 242.225 C 295.858 240.189 295.428 238.281 294.926 236.242 C 294.391 234.066 293.768 231.722 292.884 227.997 L 285.1 229.844 Z M 288.076 242.949 L 280.109 243.673 C 280.108 243.67 280.11 244.57 279.994 246.858 C 279.892 248.873 279.74 251.298 279.59 253.937 C 279.443 256.519 279.301 259.247 279.233 261.651 C 279.17 263.89 279.15 266.383 279.374 268.225 L 287.316 267.259 L 295.257 266.294 C 295.197 265.794 295.161 264.424 295.227 262.102 C 295.288 259.943 295.418 257.408 295.564 254.847 C 295.707 252.342 295.868 249.742 295.973 247.67 C 296.065 245.87 296.17 243.621 296.043 242.225 L 288.076 242.949 Z M 287.316 267.259 L 279.374 268.225 C 279.957 273.012 281.129 281.486 284.561 289.664 L 291.938 286.569 L 299.314 283.473 C 296.795 277.47 295.815 270.876 295.257 266.294 L 287.316 267.259 Z M 291.938 286.569 L 284.561 289.664 C 286.405 294.058 287.189 300.583 287.299 303.292 L 295.293 302.966 L 303.286 302.639 C 303.143 299.144 302.231 290.424 299.314 283.473 L 291.938 286.569 Z M 295.293 302.966 L 287.686 305.442 C 288.004 306.419 288.896 309.085 290.033 312.288 L 297.572 309.613 L 305.111 306.938 C 304.019 303.86 303.173 301.327 302.9 300.489 L 295.293 302.966 Z M 297.572 309.613 L 290.033 312.288 C 291.322 315.922 293.428 323.41 293.975 326.09 L 301.814 324.491 L 309.652 322.891 C 308.933 319.367 306.608 311.155 305.111 306.938 L 297.572 309.613 Z M 301.814 324.491 L 293.975 326.09 C 294.642 329.358 297.067 339.303 298.815 344.335 L 306.372 341.711 L 313.929 339.087 C 312.511 335.002 310.251 325.828 309.652 322.891 L 301.814 324.491 Z M 306.372 341.711 L 298.815 344.335 C 300.538 349.298 305.296 359.625 305.823 360.823 L 313.146 357.601 L 320.468 354.379 C 319.603 352.412 315.371 343.24 313.929 339.087 L 306.372 341.711 Z M 313.146 357.601 L 305.823 360.823 C 305.818 360.811 305.928 361.078 306.2 361.785 C 306.44 362.412 306.754 363.241 307.118 364.214 C 307.845 366.157 308.755 368.628 309.652 371.105 C 310.552 373.587 311.427 376.043 312.087 377.968 C 312.419 378.935 312.682 379.726 312.864 380.302 C 313.135 381.162 313.037 380.972 312.956 380.425 L 320.87 379.253 L 328.783 378.08 C 328.639 377.106 328.274 375.968 328.123 375.491 C 327.883 374.73 327.571 373.794 327.221 372.775 C 326.518 370.727 325.608 368.174 324.695 365.654 C 322.936 360.798 320.954 355.482 320.468 354.379 L 313.146 357.601 Z M 320.87 379.253 L 312.956 380.425 C 313.116 381.503 313.523 382.927 313.799 383.871 C 314.141 385.039 314.565 386.401 314.981 387.706 C 315.809 390.303 316.673 392.88 316.927 393.608 L 324.478 390.965 L 332.029 388.322 C 331.841 387.784 331.026 385.359 330.225 382.845 C 329.826 381.593 329.446 380.371 329.156 379.381 C 328.802 378.167 328.75 377.858 328.783 378.08 L 320.87 379.253 Z M 324.478 390.965 L 316.927 393.608 C 317.031 393.904 317.162 394.244 317.242 394.453 C 317.341 394.71 317.435 394.956 317.533 395.222 C 317.732 395.761 317.902 396.269 318.022 396.72 C 318.154 397.216 318.151 397.374 318.148 397.261 C 318.145 397.186 318.14 396.899 318.225 396.47 C 318.311 396.037 318.516 395.326 319.022 394.542 L 325.744 398.879 L 332.467 403.216 C 334.061 400.745 334.187 398.167 334.139 396.723 C 334.085 395.141 333.77 393.68 333.483 392.602 C 332.968 390.667 331.992 388.217 332.029 388.322 L 324.478 390.965 Z M 325.744 398.879 L 319.022 394.542 C 317.947 396.208 317.153 397.995 316.811 399.957 C 316.463 401.952 316.687 403.567 316.853 404.511 L 324.731 403.12 L 332.61 401.73 C 332.592 401.629 332.615 401.734 332.624 401.931 C 332.634 402.15 332.623 402.419 332.573 402.706 C 332.468 403.307 332.275 403.512 332.467 403.216 L 325.744 398.879 Z M 324.731 403.12 L 316.853 404.511 C 317.029 405.509 317.436 406.557 317.504 406.74 C 317.692 407.249 317.931 407.86 318.184 408.499 C 318.44 409.146 318.735 409.879 319.04 410.639 C 319.348 411.406 319.67 412.21 319.994 413.026 C 320.647 414.672 321.277 416.297 321.767 417.666 C 322.332 419.247 322.484 419.872 322.475 419.82 L 330.366 418.504 L 338.257 417.189 C 337.995 415.618 337.339 413.694 336.831 412.274 C 336.246 410.642 335.535 408.812 334.866 407.127 C 334.529 406.277 334.196 405.446 333.889 404.68 C 333.579 403.907 333.299 403.211 333.058 402.603 C 332.813 401.986 332.631 401.517 332.511 401.192 C 332.27 400.54 332.481 401 332.61 401.73 L 324.731 403.12 Z M 330.366 418.504 L 322.475 419.82 C 322.624 420.713 322.814 421.68 322.976 422.506 C 323.148 423.386 323.295 424.145 323.408 424.823 C 323.526 425.539 323.561 425.905 323.566 426.024 C 323.568 426.081 323.554 425.879 323.598 425.518 C 323.622 425.327 323.672 425.012 323.784 424.619 C 323.893 424.235 324.097 423.652 324.483 422.995 L 331.379 427.051 L 338.274 431.107 C 339.15 429.619 339.389 428.194 339.478 427.481 C 339.579 426.659 339.575 425.911 339.552 425.354 C 339.505 424.244 339.342 423.111 339.192 422.205 C 339.035 421.26 338.842 420.274 338.678 419.435 C 338.503 418.542 338.361 417.815 338.257 417.189 L 330.366 418.504 Z M 331.379 427.051 L 324.483 422.995 C 324.662 422.691 322.121 425.93 321.707 430.206 L 329.67 430.976 L 337.632 431.747 C 337.627 431.805 337.607 431.937 337.551 432.114 C 337.495 432.289 337.431 432.42 337.399 432.479 C 337.382 432.51 337.393 432.485 337.547 432.251 C 337.601 432.17 337.733 431.971 337.839 431.808 C 337.959 431.623 338.112 431.383 338.274 431.107 L 331.379 427.051 Z M 329.67 430.976 L 321.707 430.206 C 321.589 431.422 321.462 434.366 321.34 436.691 C 321.274 437.965 321.204 439.178 321.131 440.169 C 321.045 441.33 320.984 441.715 321.002 441.626 L 328.847 443.195 L 336.691 444.764 C 337.026 443.088 337.202 439.753 337.318 437.527 C 337.466 434.708 337.56 432.493 337.632 431.747 L 329.67 430.976 Z M 328.847 443.195 L 321.002 441.626 C 321.094 441.165 321.222 440.841 321.298 440.672 C 321.377 440.497 321.434 440.41 321.435 440.409 C 321.438 440.405 321.406 440.453 321.326 440.55 C 321.247 440.646 321.133 440.773 320.979 440.927 C 320.332 441.579 319.251 442.439 317.787 443.276 L 321.756 450.222 L 325.725 457.168 C 328.249 455.726 330.524 454.022 332.33 452.205 C 333.879 450.645 336.03 448.068 336.691 444.764 L 328.847 443.195 Z M 321.756 450.222 L 317.787 443.276 C 316.906 443.78 315.694 444.164 314.209 444.418 C 312.651 444.685 311.505 444.719 310.037 444.849 L 310.74 452.818 L 311.443 460.787 C 312.849 460.663 319.856 460.522 325.725 457.168 L 321.756 450.222 Z M 310.74 452.818 L 310.037 444.849 C 310.546 444.804 311.825 444.864 313.168 445.896 C 314.491 446.912 315.629 448.767 315.499 451.109 L 307.511 450.665 L 299.524 450.221 C 299.092 457.989 306.377 461.234 311.443 460.787 L 310.74 452.818 Z M 307.511 450.665 L 315.499 451.109 C 315.603 449.235 315.099 447.038 313.532 445.176 C 312.129 443.511 310.458 442.813 309.513 442.515 C 308.542 442.209 307.695 442.122 307.229 442.089 C 306.726 442.052 306.28 442.054 306.027 442.056 C 305.206 442.065 305.5 442.065 305.652 442.077 C 305.799 442.089 306.399 442.139 307.176 442.407 C 307.944 442.672 309.51 443.366 310.753 445.074 L 304.283 449.779 L 297.813 454.484 C 299.182 456.366 300.945 457.183 301.963 457.534 C 302.989 457.887 303.889 457.987 304.367 458.025 C 304.89 458.067 305.351 458.067 305.612 458.065 C 305.753 458.063 305.888 458.061 305.979 458.059 C 306.084 458.057 306.142 458.056 306.195 458.055 C 306.317 458.054 306.239 458.059 306.073 458.047 C 305.946 458.038 305.407 457.997 304.697 457.773 C 304.012 457.557 302.552 456.977 301.292 455.481 C 300.641 454.708 300.142 453.801 299.84 452.812 C 299.544 451.843 299.483 450.949 299.524 450.221 L 307.511 450.665 Z M 304.283 449.779 L 310.753 445.074 C 310.69 444.987 310.623 444.898 310.595 444.86 C 310.556 444.808 310.535 444.779 310.516 444.753 C 310.479 444.702 310.48 444.702 310.498 444.73 C 310.509 444.746 310.721 445.068 310.897 445.635 C 311.082 446.232 311.306 447.379 310.945 448.785 C 310.56 450.286 309.71 451.301 309.027 451.847 L 304.029 445.601 L 299.032 439.354 C 297.4 440.659 296.043 442.49 295.448 444.808 C 294.877 447.031 295.189 448.997 295.611 450.362 C 296.338 452.711 297.925 454.639 297.813 454.484 L 304.283 449.779 Z M 304.029 445.601 L 309.027 451.847 C 308.96 451.901 309.013 451.849 309.294 451.7 C 309.599 451.539 309.866 451.42 310.419 451.161 C 310.569 451.091 311.886 450.517 312.972 449.658 C 313.362 449.35 315.409 447.759 316.022 444.762 C 316.862 440.663 314.496 437.854 313.147 436.75 L 308.081 442.942 L 303.015 449.133 C 302.462 448.68 301.58 447.826 300.937 446.464 C 300.229 444.965 300.002 443.242 300.348 441.552 C 300.664 440.009 301.367 438.924 301.844 438.318 C 302.326 437.707 302.792 437.31 303.046 437.109 C 303.319 436.894 303.54 436.752 303.651 436.685 C 303.769 436.612 303.85 436.569 303.867 436.56 C 303.887 436.55 303.844 436.573 303.638 436.669 C 303.096 436.923 300.893 437.865 299.032 439.354 L 304.029 445.601 Z M 308.081 442.942 L 313.147 436.75 C 312.107 435.899 311.085 435.483 310.481 435.278 C 309.843 435.061 309.285 434.953 308.921 434.895 C 308.222 434.783 307.58 434.757 307.273 434.746 C 307.088 434.739 306.906 434.735 306.767 434.732 C 306.615 434.728 306.502 434.725 306.388 434.722 C 306.16 434.715 306.049 434.707 305.995 434.702 C 305.936 434.696 306.045 434.702 306.259 434.755 C 306.462 434.806 306.936 434.941 307.52 435.275 C 308.135 435.627 308.918 436.226 309.573 437.182 C 310.247 438.165 310.569 439.209 310.66 440.12 L 302.7 440.916 L 294.74 441.712 C 294.894 443.255 295.41 444.82 296.378 446.231 C 297.327 447.615 298.503 448.55 299.579 449.165 C 301.542 450.288 303.519 450.537 304.454 450.627 C 305.382 450.717 306.611 450.733 306.692 450.735 C 306.902 450.743 306.723 450.746 306.4 450.695 C 306.224 450.667 305.834 450.597 305.336 450.428 C 304.875 450.271 303.968 449.913 303.015 449.133 L 308.081 442.942 Z M 302.7 440.916 L 310.66 440.12 C 310.703 440.548 310.653 440.964 310.563 441.288 C 310.488 441.556 310.421 441.629 310.547 441.404 C 310.694 441.142 310.898 440.826 311.331 440.165 C 311.717 439.577 312.253 438.76 312.792 437.827 L 305.865 433.825 L 298.939 429.823 C 298.655 430.314 298.352 430.78 297.951 431.392 C 297.597 431.932 297.064 432.736 296.594 433.574 C 295.571 435.397 294.384 438.155 294.74 441.712 L 302.7 440.916 Z M 305.865 433.825 L 312.792 437.827 C 313.619 436.396 314.673 434.515 315.059 432.154 C 315.245 431.014 315.237 430.024 315.214 429.342 C 315.201 428.943 315.138 427.796 315.124 427.471 L 307.132 427.811 L 299.139 428.151 C 299.157 428.574 299.177 428.946 299.193 429.234 C 299.209 429.545 299.218 429.724 299.223 429.868 C 299.232 430.147 299.208 429.941 299.268 429.576 C 299.299 429.388 299.341 429.214 299.387 429.068 C 299.43 428.93 299.464 428.856 299.46 428.864 C 299.432 428.927 299.313 429.175 298.939 429.823 L 305.865 433.825 Z M 307.132 427.811 L 315.124 427.471 C 315.056 425.852 314.736 424.397 314.208 423.057 C 313.721 421.823 313.113 420.855 312.863 420.448 C 312.553 419.944 312.576 419.964 312.597 420.013 C 312.656 420.146 312.664 420.23 312.654 420.159 L 304.726 421.227 L 296.797 422.294 C 297.009 423.869 297.413 425.227 297.944 426.439 C 298.439 427.566 299.012 428.468 299.232 428.827 C 299.512 429.283 299.414 429.158 299.322 428.923 C 299.187 428.582 299.144 428.282 299.139 428.151 L 307.132 427.811 Z M 304.726 421.227 L 312.654 420.159 C 312.496 418.979 312.454 416.733 312.314 413.676 C 312.254 412.372 312.171 410.887 312.015 409.631 C 311.941 409.034 311.816 408.184 311.574 407.321 C 311.456 406.899 311.234 406.198 310.831 405.426 C 310.512 404.816 309.574 403.152 307.555 401.999 L 303.586 408.945 L 299.617 415.891 C 297.71 414.801 296.873 413.263 296.649 412.834 C 296.341 412.243 296.207 411.779 296.169 411.644 C 296.088 411.356 296.097 411.277 296.137 411.598 C 296.209 412.178 296.272 413.114 296.331 414.407 C 296.359 415.024 296.384 415.668 296.41 416.34 C 296.436 417.002 296.463 417.693 296.494 418.358 C 296.552 419.612 296.634 421.082 296.797 422.294 L 304.726 421.227 Z M 303.586 408.945 L 307.555 401.999 C 306.644 401.478 305.82 401.238 305.475 401.143 C 305.043 401.025 304.655 400.949 304.384 400.902 C 303.847 400.808 303.296 400.744 302.898 400.7 C 301.921 400.592 301.298 400.542 300.552 400.437 C 299.756 400.325 299.649 400.252 299.9 400.35 C 300.024 400.398 300.738 400.675 301.545 401.402 C 302.464 402.228 303.688 403.839 303.845 406.197 L 295.863 406.729 L 287.88 407.261 C 288.069 410.094 289.531 412.114 290.844 413.296 C 292.046 414.377 293.312 414.955 294.097 415.26 C 295.669 415.872 297.319 416.14 298.328 416.281 C 299.385 416.43 300.614 416.545 301.149 416.604 C 301.31 416.622 301.43 416.636 301.522 416.648 C 301.617 416.66 301.645 416.665 301.626 416.662 C 301.624 416.662 301.471 416.636 301.235 416.571 C 301.086 416.53 300.418 416.348 299.617 415.891 L 303.586 408.945 Z M 295.863 406.729 L 303.845 406.197 C 303.76 404.918 303.331 403.569 303.232 403.239 C 303.014 402.515 302.729 401.645 302.41 400.71 C 301.767 398.826 300.905 396.425 299.971 393.882 C 298.1 388.784 295.878 382.933 294.402 379.101 L 286.936 381.975 L 279.47 384.85 C 280.928 388.635 283.118 394.402 284.951 399.396 C 285.87 401.899 286.683 404.164 287.265 405.873 C 287.559 406.734 287.773 407.393 287.909 407.844 C 288.163 408.689 287.94 408.16 287.88 407.261 L 295.863 406.729 Z M 286.936 381.975 L 293.512 377.418 L 288.51 370.201 L 281.935 374.758 L 275.359 379.315 L 280.361 386.532 L 286.936 381.975 Z M 281.935 374.758 L 274.14 372.957 C 273.585 375.359 272.748 379.065 272.04 382.385 C 271.687 384.041 271.358 385.641 271.11 386.951 C 270.92 387.956 270.621 389.557 270.583 390.707 L 278.579 390.965 L 286.575 391.223 C 286.563 391.588 286.559 391.365 286.831 389.925 C 287.046 388.791 287.346 387.328 287.689 385.721 C 288.372 382.517 289.187 378.905 289.729 376.559 L 281.935 374.758 Z M 278.579 390.965 L 270.583 390.707 C 270.541 392.019 270.702 397.037 270.844 401.748 C 270.997 406.789 271.149 411.979 271.149 414.326 L 279.149 414.326 L 287.149 414.326 C 287.149 411.671 286.985 406.162 286.837 401.264 C 286.761 398.771 286.689 396.4 286.639 394.526 C 286.614 393.589 286.595 392.797 286.584 392.188 C 286.579 391.883 286.576 391.639 286.575 391.455 C 286.574 391.249 286.576 391.191 286.575 391.223 L 278.579 390.965 Z M 279.149 414.326 L 271.149 414.326 C 271.149 414.323 271.125 414.814 270.943 416.086 C 270.78 417.225 270.539 418.672 270.236 420.371 C 269.628 423.786 268.831 427.898 268.027 432.161 C 267.236 436.358 266.444 440.677 265.898 444.277 C 265.625 446.073 265.398 447.792 265.267 449.284 C 265.155 450.547 265.033 452.397 265.296 454.065 L 273.198 452.818 L 281.1 451.57 C 281.174 452.036 281.095 451.937 281.205 450.691 C 281.294 449.674 281.467 448.324 281.717 446.677 C 282.215 443.39 282.959 439.325 283.75 435.125 C 284.529 430.991 285.362 426.696 285.989 423.176 C 286.556 419.989 287.149 416.448 287.149 414.326 L 279.149 414.326 Z M 273.198 452.818 L 265.296 454.065 C 265.732 456.83 266.862 461.98 268.06 466.731 C 268.668 469.141 269.322 471.563 269.95 473.633 C 270.51 475.477 271.242 477.707 272.079 479.289 L 279.149 475.546 L 286.219 471.803 C 286.27 471.898 286.178 471.731 285.957 471.12 C 285.76 470.574 285.525 469.858 285.26 468.985 C 284.731 467.243 284.146 465.086 283.575 462.819 C 282.414 458.216 281.423 453.617 281.1 451.57 L 273.198 452.818 Z M 279.149 475.546 L 272.079 479.289 C 271.864 478.883 271.901 478.816 272.105 479.551 C 272.269 480.14 272.463 480.962 272.683 482.019 C 273.121 484.126 273.587 486.81 274.061 489.744 C 274.971 495.376 275.95 502.228 276.661 506.11 L 284.53 504.668 L 292.399 503.225 C 291.718 499.51 290.861 493.416 289.856 487.193 C 289.373 484.2 288.861 481.23 288.348 478.761 C 288.092 477.53 287.817 476.333 287.523 475.274 C 287.269 474.36 286.862 473.016 286.219 471.803 L 279.149 475.546 Z M 284.53 504.668 L 276.661 506.11 C 277.767 512.141 281.203 531.847 282.789 540.983 L 290.671 539.614 L 298.553 538.246 C 296.974 529.148 293.522 509.349 292.399 503.225 L 284.53 504.668 Z M 290.671 539.614 L 282.747 540.715 C 283.023 542.7 283.329 545.999 283.327 549.18 C 283.325 550.767 283.246 552.175 283.092 553.297 C 282.92 554.542 282.725 554.897 282.81 554.734 L 289.912 558.417 L 297.014 562.1 C 298.162 559.885 298.673 557.434 298.942 555.482 C 299.228 553.406 299.325 551.224 299.327 549.194 C 299.33 545.138 298.953 541.087 298.595 538.514 L 290.671 539.614 Z M 289.912 558.417 L 282.81 554.734 C 281.326 557.595 278.076 564.705 274.877 572.364 C 271.703 579.962 268.303 588.751 266.722 594.832 L 274.464 596.845 L 282.207 598.859 C 283.474 593.987 286.468 586.127 289.641 578.531 C 292.789 570.995 295.838 564.367 297.014 562.1 L 289.912 558.417 Z M 216.98 585.576 L 224.98 585.576 C 224.98 584.45 224.92 583.733 224.99 582.525 C 225.021 582.001 225.07 581.603 225.123 581.336 C 225.184 581.023 225.198 581.156 225.004 581.524 L 217.929 577.789 L 210.854 574.055 C 209.395 576.82 209.113 579.943 209.017 581.6 C 208.913 583.4 208.98 585.437 208.98 585.576 L 216.98 585.576 Z M 217.929 577.789 L 225.004 581.524 C 225.988 579.659 226.334 577.705 226.477 576.321 C 226.635 574.805 226.619 573.242 226.494 571.771 C 226.261 569.024 225.554 565.556 223.98 562.711 L 216.98 566.584 L 209.98 570.456 C 209.965 570.43 210.093 570.674 210.244 571.261 C 210.385 571.809 210.495 572.461 210.552 573.124 C 210.609 573.799 210.597 574.337 210.563 574.67 C 210.546 574.831 210.531 574.871 210.547 574.809 C 210.558 574.766 210.632 574.477 210.854 574.055 L 217.929 577.789 Z M 216.98 566.584 L 223.98 562.711 C 222.92 560.795 220.529 555.286 219.361 552.487 L 211.978 555.568 L 204.595 558.649 C 205.664 561.21 208.406 567.612 209.98 570.456 L 216.98 566.584 Z M 211.978 555.568 L 212.286 547.574 C 208.402 547.425 203.897 549.792 202.054 554.86 L 209.573 557.594 L 217.091 560.328 C 216.826 561.056 216.223 561.954 215.191 562.632 C 214.326 563.2 213.144 563.619 211.671 563.562 L 211.978 555.568 Z M 209.573 557.594 L 202.054 554.86 C 202.185 554.5 202.06 554.852 201.104 556.436 C 200.333 557.715 199.311 559.333 198.178 561.084 C 195.919 564.577 193.344 568.416 191.752 570.759 L 198.367 575.257 L 204.982 579.756 C 206.618 577.35 209.266 573.402 211.613 569.773 C 212.784 567.963 213.909 566.186 214.806 564.699 C 215.518 563.517 216.58 561.733 217.091 560.328 L 209.573 557.594 Z M 198.367 575.257 L 191.752 570.759 C 189.55 573.997 187.271 579.355 185.614 583.698 C 183.948 588.066 182.354 592.886 181.891 595.389 L 189.757 596.845 L 197.623 598.302 C 197.793 597.386 198.89 593.787 200.563 589.402 C 202.245 584.993 203.956 581.266 204.982 579.756 L 198.367 575.257 Z M 117.078 573.611 L 125.051 574.274 L 128.849 528.565 L 120.877 527.902 L 112.904 527.24 L 109.106 572.949 L 117.078 573.611 Z M 120.877 527.902 L 128.804 528.982 L 133.995 490.87 L 126.068 489.79 L 118.141 488.71 L 112.95 526.822 L 120.877 527.902 Z M 126.068 489.79 L 133.517 486.871 C 132.111 483.285 130 477.674 128.245 472.537 C 127.365 469.961 126.604 467.588 126.069 465.687 C 125.438 463.445 125.39 462.755 125.394 463.029 L 117.395 463.137 L 109.396 463.245 C 109.425 465.393 110.115 468.057 110.667 470.019 C 111.314 472.322 112.18 475.005 113.104 477.709 C 114.956 483.13 117.155 488.972 118.62 492.709 L 126.068 489.79 Z M 117.395 463.137 L 125.394 463.029 C 125.345 459.373 125.374 451.383 125.395 447.8 L 117.395 447.753 L 109.395 447.706 C 109.374 451.256 109.344 459.406 109.396 463.245 L 117.395 463.137 Z M 117.395 447.753 L 123.611 442.717 C 122.544 441.4 120.896 439.251 119.49 437.186 C 118.785 436.149 118.212 435.237 117.817 434.523 C 117.306 433.599 117.454 433.644 117.585 434.312 L 109.734 435.851 L 101.884 437.39 C 102.268 439.349 103.207 441.166 103.814 442.264 C 104.538 443.573 105.409 444.933 106.262 446.187 C 107.975 448.704 109.904 451.215 111.179 452.789 L 117.395 447.753 Z M 109.734 435.851 L 117.585 434.312 C 117.479 433.773 117.314 433.114 117.036 432.409 C 116.763 431.718 116.309 430.794 115.537 429.876 C 114.73 428.916 113.562 427.952 111.989 427.367 C 110.411 426.779 108.886 426.744 107.63 426.954 C 106.436 427.154 105.499 427.57 104.875 427.908 C 104.239 428.253 103.736 428.622 103.38 428.909 C 102.69 429.465 102.155 430.04 101.842 430.39 C 101.511 430.76 101.201 431.138 101.031 431.345 C 100.93 431.468 100.864 431.547 100.808 431.614 C 100.751 431.681 100.738 431.694 100.753 431.678 C 100.762 431.669 100.855 431.566 101.015 431.42 C 101.148 431.298 101.519 430.968 102.09 430.627 C 102.574 430.337 103.88 429.623 105.752 429.562 C 106.767 429.529 107.913 429.692 109.065 430.181 C 110.216 430.67 111.121 431.377 111.792 432.116 L 105.873 437.497 L 99.953 442.878 C 100.664 443.66 101.613 444.399 102.81 444.908 C 104.009 445.417 105.206 445.588 106.275 445.554 C 108.254 445.489 109.682 444.729 110.299 444.361 C 111.002 443.94 111.518 443.496 111.805 443.234 C 112.118 442.948 112.375 442.678 112.555 442.481 C 112.895 442.11 113.22 441.712 113.381 441.517 C 113.599 441.253 113.693 441.14 113.765 441.059 C 113.856 440.958 113.724 441.121 113.423 441.364 C 113.261 441.495 112.948 441.732 112.496 441.977 C 112.057 442.214 111.299 442.562 110.276 442.734 C 109.191 442.916 107.83 442.891 106.405 442.361 C 104.987 441.832 103.962 440.972 103.288 440.17 C 102.65 439.41 102.317 438.698 102.152 438.281 C 101.982 437.85 101.91 437.526 101.884 437.39 L 109.734 435.851 Z M 105.873 437.497 L 111.792 432.116 C 111.553 431.852 111.785 432.076 111.981 432.453 C 112.077 432.638 112.138 432.803 112.174 432.927 C 112.207 433.045 112.203 433.078 112.196 432.995 L 104.227 433.698 L 96.258 434.402 C 96.436 436.428 96.953 438.233 97.786 439.835 C 98.599 441.398 99.559 442.445 99.953 442.878 L 105.873 437.497 Z M 104.227 433.698 L 112.196 432.995 C 112.078 431.656 111.645 430.378 111.466 429.848 C 111.203 429.07 110.873 428.21 110.53 427.356 C 109.837 425.637 108.953 423.613 108.094 421.693 C 107.228 419.759 106.353 417.857 105.67 416.374 C 105.325 415.625 105.035 414.996 104.812 414.508 C 104.559 413.953 104.474 413.758 104.477 413.766 L 97.073 416.795 L 89.668 419.824 C 90.005 420.647 91.977 424.85 93.49 428.231 C 94.324 430.094 95.11 431.899 95.688 433.334 C 95.98 434.057 96.185 434.604 96.31 434.974 C 96.519 435.593 96.328 435.202 96.258 434.402 L 104.227 433.698 Z M 97.073 416.795 L 104.477 413.766 C 103.836 412.198 102.87 411.193 102.395 410.737 C 101.844 410.209 101.303 409.818 100.917 409.558 C 100.146 409.04 99.328 408.612 98.674 408.291 C 97.338 407.635 95.681 406.942 94.176 406.318 C 90.79 404.915 87.874 403.722 86.157 402.702 L 82.069 409.578 L 77.98 416.454 C 80.948 418.219 85.249 419.938 88.052 421.099 C 89.64 421.758 90.82 422.259 91.62 422.652 C 92.033 422.855 92.106 422.914 91.996 422.84 C 91.94 422.803 91.672 422.622 91.329 422.293 C 91.061 422.036 90.238 421.218 89.668 419.824 L 97.073 416.795 Z M 82.069 409.578 L 86.157 402.702 C 84.972 401.997 84.283 401.347 83.939 400.961 C 83.764 400.764 83.694 400.653 83.696 400.657 C 83.698 400.66 83.73 400.711 83.78 400.812 C 83.825 400.902 83.921 401.106 84.023 401.413 L 76.434 403.943 L 68.845 406.473 C 69.935 409.743 73.097 413.551 77.98 416.454 L 82.069 409.578 Z M 76.434 403.943 L 82.016 398.212 C 73.75 390.162 56.528 372.542 50.638 363.869 L 44.02 368.364 L 37.402 372.858 C 44.376 383.127 62.868 401.898 70.852 409.674 L 76.434 403.943 Z M 44.02 368.364 L 50.53 363.714 C 45.115 356.133 27.954 329.427 19.936 316.838 L 13.188 321.135 L 6.441 325.432 C 14.335 337.829 31.783 364.995 37.51 373.014 L 44.02 368.364 Z M 13.188 321.135 L 19.751 316.56 C 17.474 313.294 14.118 308.072 11.502 303.135 C 10.187 300.653 9.165 298.439 8.547 296.693 C 7.776 294.517 8.129 294.421 7.925 295.433 L 0.084 293.849 L -7.758 292.266 C -8.494 295.911 -7.37 299.68 -6.535 302.036 C -5.548 304.821 -4.129 307.806 -2.637 310.624 C 0.364 316.288 4.092 322.076 6.626 325.711 L 13.188 321.135 Z M 0.084 293.849 L 7.925 295.433 C 8.927 290.471 11.765 284.48 18.976 273.57 L 12.302 269.159 L 5.628 264.748 C -1.722 275.869 -6.101 284.059 -7.758 292.266 L 0.084 293.849 Z M 12.302 269.159 L 18.976 273.57 C 25.833 263.195 37.313 249.951 51.133 235.817 L 45.413 230.224 L 39.693 224.631 C 25.657 238.986 13.332 253.091 5.628 264.748 L 12.302 269.159 Z M 45.413 230.224 L 51.133 235.817 C 62.309 224.386 70.207 216.044 72.795 213.261 L 66.938 207.812 L 61.08 202.364 C 58.604 205.026 50.801 213.27 39.693 224.631 L 45.413 230.224 Z M 66.938 207.812 L 73.466 212.437 C 74.832 210.509 78.131 205.805 79.266 203.953 L 72.446 199.772 L 65.625 195.592 C 64.835 196.88 61.914 201.064 60.41 203.188 L 66.938 207.812 Z M 72.446 199.772 L 80.446 199.772 C 80.446 195.217 80.496 183.631 83.626 176.14 L 76.244 173.056 L 68.863 169.972 C 64.269 180.967 64.446 195.971 64.446 199.772 L 72.446 199.772 Z M 76.244 173.056 L 83.626 176.14 C 85.53 171.582 86.855 168.865 89.051 166.382 C 91.239 163.907 94.765 161.163 101.756 157.784 L 98.276 150.581 L 94.795 143.378 C 86.719 147.28 81.16 151.151 77.065 155.783 C 72.977 160.406 70.82 165.287 68.863 169.972 L 76.244 173.056 Z M 98.276 150.581 L 101.756 157.784 C 108.497 154.527 115.88 152.425 122.526 151.567 C 129.388 150.681 134.542 151.235 137.298 152.357 L 140.313 144.947 L 143.328 137.537 C 136.904 134.923 128.573 134.654 120.478 135.699 C 112.168 136.772 103.122 139.355 94.795 143.378 L 98.276 150.581 Z M 117.078 573.611 L 117.779 581.58 L 290.612 566.386 L 289.912 558.417 L 289.211 550.448 L 116.378 565.642 L 117.078 573.611 Z" fill="#e1a1b1" fill-rule="nonzero"></path>
</svg>