<svg xmlns="http://www.w3.org/2000/svg" width="849.500" height="205.084" viewBox="0 0 849.500 205.084" fill="none">
  <path d="M 19.5 26 L 0 26 L 0 128.5 L 8.498 128.705 C 10.997 128.766 19.506 128.471 21.994 129.031 C 24.481 129.592 33.357 134.808 36.356 134.88 C 39.356 134.953 56.447 131.364 64.921 132.569 C 73.394 133.774 69.347 135.677 73.761 139.285 C 78.175 142.893 77.832 136.382 84.342 136.04 C 90.853 135.697 100.338 136.426 104.752 140.034 C 109.166 143.641 111.665 143.702 123.162 143.98 C 134.659 144.257 136.574 147.805 137.561 148.329 C 138.549 148.853 139.028 154.83 146.43 159.01 C 153.831 163.19 161.401 160.372 164.4 160.444 C 167.399 160.517 171.447 158.614 173.946 158.674 C 176.445 158.735 178.92 159.795 183.419 159.903 C 187.018 159.99 195.313 157.523 199.011 156.279 C 203.193 155.713 212.255 154.598 215.055 154.666 C 218.554 154.751 222.173 149.837 224.185 149.385 C 226.196 148.933 231.61 152.565 236.5 157.185 C 241.39 161.804 257.49 152.727 260.989 152.812 C 264.488 152.896 268.511 151.993 270.486 153.041 C 272.461 154.089 273.437 155.113 276.388 157.185 C 279.339 159.257 283.91 156.366 290.884 157.535 C 297.857 158.704 318.489 174.207 318.977 174.719 C 319.464 175.231 323.379 178.826 325.854 179.886 C 328.329 180.946 332.864 179.556 333.851 180.08 C 334.839 180.604 336.718 185.65 338.681 187.198 C 340.644 188.746 344.595 190.842 348.557 192.438 C 352.52 194.035 370.418 198.468 381.366 200.733 C 392.315 202.998 408.334 202.385 411.93 198.471 C 415.526 194.557 435.677 188.542 437.688 188.09 C 439.7 187.639 446.722 186.808 453.756 185.478 C 460.79 184.147 471.751 185.912 477.237 186.545 C 482.723 187.178 487.758 185.799 490.342 182.36 C 492.926 178.922 514.98 176.954 517.991 176.527 C 521.002 176.099 522.099 172.124 528.097 172.269 C 534.095 172.414 543.58 173.144 547.567 173.74 C 551.554 174.337 553.408 180.383 558.298 185.003 C 563.188 189.622 578.014 196.982 581.953 199.578 C 585.891 202.174 596.84 204.439 598.339 204.476 C 599.839 204.512 601.826 205.06 602.826 205.084 C 603.826 205.108 606.861 203.681 608.349 204.217 C 609.836 204.753 609.836 204.753 611.348 204.29 C 612.859 203.826 617.37 203.435 619.357 203.983 C 621.345 204.531 627.867 203.689 629.391 202.725 C 630.61 201.954 629.678 197.731 629.06 195.715 L 629.12 193.216 C 629.144 192.216 629.193 190.217 630.193 190.241 C 631.192 190.265 636.787 186.399 637.299 185.911 C 637.709 185.521 641.842 184.187 643.858 183.569 C 644.516 183.918 646.13 184.724 647.32 185.153 C 648.808 185.689 652.476 184.576 653 183.588 L 841 187.5 L 849.5 64 L 841 64 C 838.5 64 830 64.5 827.5 64 C 825 63.5 816 58.5 813 58.5 C 810 58.5 793 62.5 784.5 61.5 C 776 60.5 780 58.5 775.5 55 C 771 51.5 771.5 58 765 58.5 C 758.5 59 749 58.5 744.5 55 C 740 51.5 737.5 51.5 726 51.5 C 714.5 51.5 712.5 48 711.5 47.5 C 710.5 47 707 44 699.5 40 C 692 36 684.5 39 681.5 39 C 678.5 39 674.5 41 672 41 C 669.5 41 667 40 662.5 40 C 658.9 40 650.667 42.667 647 44 C 642.833 44.667 633.8 46 631 46 C 627.5 46 624 51 622 51.5 C 620 52 614.5 48.5 609.5 44 C 604.5 39.5 591.5 46 588 46 C 584.5 46 580.5 47 578.5 46 C 576.5 45 575.5 44 572.5 42 C 569.5 40 565 43 558 42 C 551 41 530 26 529.5 25.5 C 529 25 525 21.5 522.5 20.5 C 520 19.5 515.5 21 514.5 20.5 C 513.5 20 511.5 15 509.5 13.5 C 507.5 12 503.5 10 499.5 8.5 C 495.5 7 477.5 3 466.5 1 C 455.5 -1 439.5 0 436 4 C 432.5 8 412.5 14.5 410.5 15 C 408.5 15.5 401.5 16.5 394.5 18 C 387.5 19.5 376.5 18 371 17.5 C 365.5 17 360.5 18.5 358 22 C 355.5 25.5 333.5 28 330.5 28.5 C 327.5 29 326.5 33 320.5 33 C 314.5 33 305 32.5 301 32 C 297 31.5 295 25.5 290 21 C 285 16.5 270 9.5 266 7 C 262 4.5 251 2.5 249.5 2.5 C 248 2.5 246 2 245 2 C 244 2 241 3.5 239.5 3 L 239.5 3 C 238 2.5 238 2.5 236.5 3 C 235 3.5 230.5 4 228.5 3.5 C 226.5 3 220 4 218.5 5 C 217.3 5.8 218.333 10 219 12 L 219 14.5 C 219 15.5 219 17.5 218 17.5 C 217 17.5 211.5 21.5 211 22 C 210.6 22.4 206.5 23.833 204.5 24.5 C 203.833 24.167 202.2 23.4 201 23 C 199.5 22.5 198.5 26.5 198 27.5 C 197.5 28.5 191.5 31 190 31 C 188.5 31 186 34.5 185 33.5 C 184.2 32.7 182.667 33.833 182 34.5 C 179.833 36.667 175.3 41 174.5 41 L 169.5 41 C 168.5 41 169 42 166.5 43.5 C 164 45 160 44.5 158 44.5 C 156 44.5 155.5 46 154.5 46 C 153.5 46 152 45 151 44.5 C 150 44 147 46 145 47 C 143 48 135 46.5 131 46 C 127 45.5 120.5 43.5 118.5 43.5 L 95.5 43.5 C 86 43.5 84.5 40 82 39.5 C 79.5 39 69.5 34 67.5 33 C 65.9 32.2 64.167 32.667 63.5 33 C 60.167 33.167 52.2 32.7 47 29.5 C 41.8 26.3 42.833 28.167 44 29.5 C 41.833 30.167 37.2 31.4 36 31 C 34.5 30.5 24.5 30.5 22 29.5 C 20 28.7 19.5 26.833 19.5 26 Z" fill="currentColor" fill-rule="nonzero"></path>
  <path d="M 0 26 L 0 25.5 L -0.5 25.5 L -0.5 26 L 0 26 Z M 19.5 26 L 20 26 L 20 25.5 L 19.5 25.5 L 19.5 26 Z M 22 29.5 L 22.186 29.036 L 22.186 29.036 L 22 29.5 Z M 36 31 L 35.842 31.474 L 35.842 31.474 L 36 31 Z M 44 29.5 L 44.147 29.978 L 44.884 29.751 L 44.376 29.171 L 44 29.5 Z M 63.5 33 L 63.525 33.499 L 63.63 33.494 L 63.724 33.447 L 63.5 33 Z M 182 34.5 L 181.646 34.146 L 181.646 34.146 L 182 34.5 Z M 185 33.5 L 185.354 33.146 L 185.354 33.146 L 185 33.5 Z M 201 23 L 201.158 22.526 L 201.158 22.526 L 201 23 Z M 204.5 24.5 L 204.276 24.947 L 204.462 25.04 L 204.658 24.974 L 204.5 24.5 Z M 211 22 L 210.646 21.646 L 210.646 21.646 L 211 22 Z M 219 12 L 219.5 12 L 219.5 11.919 L 219.474 11.842 L 219 12 Z M 218.5 5 L 218.223 4.584 L 218.223 4.584 L 218.5 5 Z M 236.5 3 L 236.342 2.526 L 236.342 2.526 L 236.5 3 Z M 239.5 3 L 239.663 2.527 L 239.658 2.526 L 239.5 3 Z M 239.5 3 L 239.336 3.472 L 239.342 3.474 L 239.5 3 Z M 647 44 L 647.079 44.494 L 647.126 44.486 L 647.171 44.47 L 647 44 Z M 849.5 64 L 849.999 64.034 L 850.036 63.5 L 849.5 63.5 L 849.5 64 Z M 841 187.5 L 840.99 188 L 841.466 188.01 L 841.499 187.534 L 841 187.5 Z M 653 183.588 L 653.01 183.088 L 652.703 183.082 L 652.558 183.354 L 653 183.588 Z M 647.32 185.153 L 647.49 184.683 L 647.49 184.683 L 647.32 185.153 Z M 643.858 183.569 L 644.092 183.127 L 643.909 183.03 L 643.711 183.091 L 643.858 183.569 Z M 637.299 185.911 L 636.954 185.549 L 636.954 185.549 L 637.299 185.911 Z M 629.12 193.216 L 628.62 193.204 L 628.62 193.204 L 629.12 193.216 Z M 629.06 195.715 L 628.56 195.703 L 628.558 195.784 L 628.582 195.862 L 629.06 195.715 Z M 629.391 202.725 L 629.658 203.148 L 629.658 203.148 L 629.391 202.725 Z M 215.055 154.666 L 215.043 155.166 L 215.043 155.166 L 215.055 154.666 Z M 199.011 156.279 L 198.944 155.783 L 198.897 155.79 L 198.851 155.805 L 199.011 156.279 Z M 183.419 159.903 L 183.407 160.403 L 183.407 160.403 L 183.419 159.903 Z M 8.498 128.705 L 8.51 128.205 L 8.51 128.205 L 8.498 128.705 Z M 0 128.5 L -0.5 128.5 L -0.5 128.988 L -0.012 129 L 0 128.5 Z M 0 26 L 0 26.5 L 19.5 26.5 L 19.5 26 L 19.5 25.5 L 0 25.5 L 0 26 Z M 19.5 26 L 19 26 C 19 26.965 19.565 29.064 21.814 29.964 L 22 29.5 L 22.186 29.036 C 20.435 28.336 20 26.702 20 26 L 19.5 26 Z M 22 29.5 L 21.814 29.964 C 22.51 30.243 23.668 30.435 24.975 30.583 C 26.301 30.733 27.843 30.843 29.344 30.937 C 30.851 31.031 32.31 31.108 33.495 31.194 C 34.086 31.237 34.601 31.281 35.012 31.33 C 35.435 31.38 35.709 31.43 35.842 31.474 L 36 31 L 36.158 30.526 C 35.916 30.445 35.549 30.386 35.129 30.336 C 34.696 30.285 34.164 30.24 33.567 30.197 C 32.377 30.11 30.899 30.032 29.406 29.938 C 27.907 29.845 26.387 29.736 25.087 29.589 C 23.769 29.44 22.74 29.257 22.186 29.036 L 22 29.5 Z M 36 31 L 35.842 31.474 C 36.063 31.548 36.327 31.574 36.593 31.578 C 36.866 31.581 37.175 31.561 37.506 31.525 C 38.167 31.453 38.946 31.311 39.743 31.139 C 41.34 30.793 43.054 30.314 44.147 29.978 L 44 29.5 L 43.853 29.022 C 42.779 29.353 41.093 29.823 39.532 30.161 C 38.75 30.33 38.01 30.464 37.397 30.531 C 37.091 30.565 36.825 30.581 36.606 30.578 C 36.381 30.575 36.237 30.552 36.158 30.526 L 36 31 Z M 44 29.5 L 44.376 29.171 C 44.094 28.848 43.835 28.51 43.679 28.238 C 43.599 28.099 43.564 28.008 43.554 27.962 C 43.54 27.901 43.589 28.037 43.457 28.163 C 43.345 28.268 43.253 28.219 43.391 28.238 C 43.502 28.253 43.691 28.304 43.983 28.425 C 44.561 28.663 45.445 29.13 46.738 29.926 L 47 29.5 L 47.262 29.074 C 45.955 28.27 45.018 27.77 44.364 27.5 C 44.04 27.367 43.76 27.279 43.525 27.247 C 43.317 27.218 43.003 27.215 42.768 27.437 C 42.513 27.68 42.539 28.003 42.577 28.178 C 42.619 28.369 42.712 28.564 42.812 28.737 C 43.015 29.09 43.323 29.485 43.624 29.829 L 44 29.5 Z M 47 29.5 L 46.738 29.926 C 49.417 31.574 52.781 32.505 55.87 33.006 C 58.964 33.508 61.824 33.584 63.525 33.499 L 63.5 33 L 63.475 32.501 C 61.843 32.582 59.053 32.509 56.03 32.019 C 53.002 31.528 49.783 30.626 47.262 29.074 L 47 29.5 Z M 63.5 33 L 63.724 33.447 C 64.308 33.155 65.867 32.742 67.276 33.447 L 67.5 33 L 67.724 32.553 C 65.933 31.658 64.025 32.178 63.276 32.553 L 63.5 33 Z M 67.5 33 L 67.276 33.447 C 68.277 33.947 71.281 35.45 74.35 36.89 C 75.884 37.61 77.438 38.317 78.767 38.875 C 80.081 39.427 81.22 39.854 81.902 39.99 L 82 39.5 L 82.098 39.01 C 81.53 38.896 80.482 38.511 79.155 37.953 C 77.843 37.402 76.304 36.702 74.775 35.985 C 71.719 34.55 68.723 33.053 67.724 32.553 L 67.5 33 Z M 82 39.5 L 81.902 39.99 C 82.43 40.096 82.926 40.363 83.564 40.761 C 84.189 41.149 84.937 41.652 85.901 42.135 C 87.854 43.111 90.682 44 95.5 44 L 95.5 43.5 L 95.5 43 C 90.818 43 88.146 42.139 86.349 41.24 C 85.438 40.785 84.749 40.32 84.092 39.911 C 83.449 39.512 82.82 39.154 82.098 39.01 L 82 39.5 Z M 95.5 43.5 L 95.5 44 L 118.5 44 L 118.5 43.5 L 118.5 43 L 95.5 43 L 95.5 43.5 Z M 118.5 43.5 L 118.5 44 C 118.943 44 119.677 44.114 120.634 44.31 C 121.578 44.504 122.695 44.767 123.885 45.049 C 126.25 45.609 128.905 46.242 130.938 46.496 L 131 46 L 131.062 45.504 C 129.095 45.258 126.5 44.641 124.115 44.076 C 122.93 43.795 121.797 43.528 120.835 43.33 C 119.885 43.136 119.057 43 118.5 43 L 118.5 43.5 Z M 131 46 L 130.938 46.496 C 132.884 46.739 135.963 47.249 138.694 47.559 C 140.075 47.716 141.408 47.828 142.528 47.836 C 143.088 47.84 143.604 47.818 144.052 47.761 C 144.493 47.704 144.901 47.609 145.224 47.447 L 145 47 L 144.776 46.553 C 144.599 46.641 144.319 46.718 143.925 46.769 C 143.537 46.819 143.069 46.84 142.535 46.836 C 141.467 46.828 140.175 46.721 138.806 46.566 C 136.037 46.251 133.116 45.761 131.062 45.504 L 131 46 Z M 145 47 L 145.224 47.447 C 145.735 47.191 146.308 46.873 146.883 46.555 C 147.463 46.233 148.047 45.91 148.599 45.635 C 149.153 45.357 149.653 45.139 150.063 45.019 C 150.505 44.889 150.712 44.915 150.776 44.947 L 151 44.5 L 151.224 44.053 C 150.788 43.835 150.245 43.923 149.781 44.059 C 149.285 44.205 148.722 44.455 148.151 44.74 C 147.578 45.027 146.975 45.36 146.398 45.68 C 145.817 46.002 145.265 46.309 144.776 46.553 L 145 47 Z M 151 44.5 L 150.776 44.947 C 151.015 45.067 151.286 45.217 151.586 45.383 C 151.883 45.547 152.203 45.723 152.526 45.885 C 153.149 46.196 153.869 46.5 154.5 46.5 L 154.5 46 L 154.5 45.5 C 154.131 45.5 153.601 45.304 152.974 44.99 C 152.672 44.839 152.367 44.672 152.07 44.508 C 151.777 44.346 151.485 44.183 151.224 44.053 L 151 44.5 Z M 154.5 46 L 154.5 46.5 C 154.884 46.5 155.198 46.353 155.458 46.186 C 155.695 46.034 155.964 45.809 156.175 45.65 C 156.63 45.309 157.15 45 158 45 L 158 44.5 L 158 44 C 156.85 44 156.12 44.441 155.575 44.85 C 155.286 45.066 155.118 45.216 154.917 45.345 C 154.739 45.459 154.616 45.5 154.5 45.5 L 154.5 46 Z M 158 44.5 L 158 45 C 158.489 45 159.095 45.031 159.803 45.054 C 160.503 45.078 161.283 45.094 162.082 45.062 C 163.668 44.999 165.397 44.745 166.757 43.929 L 166.5 43.5 L 166.243 43.071 C 165.103 43.755 163.582 44.001 162.043 44.063 C 161.28 44.093 160.529 44.078 159.837 44.055 C 159.155 44.032 158.511 44 158 44 L 158 44.5 Z M 166.5 43.5 L 166.757 43.929 C 168.074 43.138 168.623 42.463 168.969 41.978 C 169.154 41.72 169.215 41.622 169.292 41.555 C 169.32 41.53 169.352 41.5 169.5 41.5 L 169.5 41 L 169.5 40.5 C 169.148 40.5 168.868 40.595 168.63 40.805 C 168.441 40.971 168.283 41.218 168.156 41.397 C 167.877 41.787 167.426 42.362 166.243 43.071 L 166.5 43.5 Z M 169.5 41 L 169.5 41.5 L 174.5 41.5 L 174.5 41 L 174.5 40.5 L 169.5 40.5 L 169.5 41 Z M 174.5 41 L 174.5 41.5 C 174.648 41.5 174.785 41.454 174.884 41.413 C 174.992 41.368 175.106 41.307 175.22 41.238 C 175.449 41.101 175.718 40.91 176.01 40.685 C 176.596 40.233 177.317 39.614 178.072 38.934 C 179.585 37.572 181.266 35.941 182.354 34.854 L 182 34.5 L 181.646 34.146 C 180.567 35.226 178.898 36.844 177.403 38.191 C 176.654 38.865 175.956 39.464 175.4 39.893 C 175.12 40.108 174.887 40.272 174.706 40.381 C 174.615 40.435 174.548 40.469 174.5 40.489 C 174.444 40.512 174.452 40.5 174.5 40.5 L 174.5 41 Z M 182 34.5 L 182.354 34.854 C 182.662 34.545 183.166 34.136 183.663 33.902 C 184.195 33.652 184.489 33.696 184.646 33.854 L 185 33.5 L 185.354 33.146 C 184.711 32.504 183.838 32.715 183.237 32.998 C 182.601 33.297 182.005 33.788 181.646 34.146 L 182 34.5 Z M 185 33.5 L 184.646 33.854 C 185.132 34.339 185.758 34.194 186.205 33.984 C 186.665 33.767 187.162 33.385 187.625 33.015 C 188.108 32.629 188.568 32.243 189.007 31.945 C 189.464 31.635 189.79 31.5 190 31.5 L 190 31 L 190 30.5 C 189.46 30.5 188.911 30.802 188.446 31.117 C 187.964 31.444 187.454 31.871 187 32.235 C 186.525 32.615 186.116 32.92 185.779 33.079 C 185.429 33.244 185.368 33.161 185.354 33.146 L 185 33.5 Z M 190 31 L 190 31.5 C 190.463 31.5 191.189 31.318 191.965 31.07 C 192.764 30.814 193.685 30.465 194.572 30.085 C 195.458 29.705 196.32 29.29 196.998 28.903 C 197.336 28.71 197.638 28.518 197.878 28.335 C 198.099 28.166 198.33 27.959 198.447 27.724 L 198 27.5 L 197.553 27.276 C 197.554 27.274 197.54 27.3 197.487 27.354 C 197.437 27.405 197.366 27.467 197.271 27.54 C 197.08 27.686 196.82 27.853 196.502 28.035 C 195.868 28.397 195.042 28.795 194.178 29.165 C 193.315 29.535 192.424 29.873 191.66 30.118 C 190.874 30.369 190.287 30.5 190 30.5 L 190 31 Z M 198 27.5 L 198.447 27.724 C 198.588 27.442 198.758 26.965 198.938 26.478 C 199.125 25.97 199.337 25.41 199.577 24.9 C 199.821 24.382 200.074 23.96 200.327 23.701 C 200.575 23.446 200.727 23.436 200.842 23.474 L 201 23 L 201.158 22.526 C 200.523 22.314 199.988 22.616 199.611 23.002 C 199.238 23.384 198.929 23.93 198.673 24.475 C 198.413 25.027 198.187 25.623 198 26.131 C 197.805 26.66 197.662 27.058 197.553 27.276 L 198 27.5 Z M 201 23 L 200.842 23.474 C 202.007 23.863 203.615 24.616 204.276 24.947 L 204.5 24.5 L 204.724 24.053 C 204.052 23.717 202.393 22.937 201.158 22.526 L 201 23 Z M 204.5 24.5 L 204.658 24.974 C 205.661 24.64 207.192 24.113 208.524 23.619 C 209.189 23.372 209.81 23.131 210.293 22.926 C 210.534 22.823 210.746 22.726 210.915 22.64 C 211.063 22.565 211.24 22.467 211.354 22.353 L 211 22 L 210.646 21.646 C 210.66 21.633 210.622 21.667 210.461 21.75 C 210.321 21.821 210.132 21.907 209.901 22.006 C 209.44 22.202 208.836 22.436 208.176 22.681 C 206.858 23.17 205.339 23.693 204.342 24.026 L 204.5 24.5 Z M 211 22 L 211.354 22.353 C 211.446 22.261 211.848 21.942 212.462 21.488 C 213.058 21.046 213.818 20.503 214.594 19.976 C 215.37 19.448 216.156 18.94 216.804 18.566 C 217.129 18.379 217.412 18.23 217.637 18.129 C 217.749 18.079 217.84 18.044 217.91 18.023 C 217.985 17.999 218.01 18 218 18 L 218 17.5 L 218 17 C 217.757 17 217.473 17.107 217.229 17.216 C 216.959 17.337 216.644 17.504 216.305 17.7 C 215.625 18.091 214.817 18.615 214.031 19.149 C 213.244 19.684 212.473 20.235 211.867 20.684 C 211.277 21.12 210.804 21.489 210.646 21.646 L 211 22 Z M 218 17.5 L 218 18 C 218.451 18 218.778 17.761 218.989 17.456 C 219.187 17.171 219.298 16.812 219.365 16.473 C 219.502 15.791 219.5 14.99 219.5 14.5 L 219 14.5 L 218.5 14.5 C 218.5 15.01 218.498 15.709 218.385 16.277 C 218.327 16.563 218.251 16.766 218.167 16.887 C 218.097 16.989 218.049 17 218 17 L 218 17.5 Z M 219 14.5 L 219.5 14.5 L 219.5 12 L 219 12 L 218.5 12 L 218.5 14.5 L 219 14.5 Z M 219 12 L 219.474 11.842 C 219.147 10.86 218.732 9.342 218.545 7.982 C 218.452 7.3 218.42 6.684 218.475 6.207 C 218.533 5.701 218.671 5.487 218.777 5.416 L 218.5 5 L 218.223 4.584 C 217.729 4.913 217.546 5.524 217.481 6.093 C 217.413 6.69 217.456 7.4 217.555 8.118 C 217.752 9.558 218.186 11.14 218.526 12.158 L 219 12 Z M 218.5 5 L 218.777 5.416 C 219.077 5.216 219.693 4.983 220.543 4.757 C 221.373 4.536 222.37 4.336 223.387 4.182 C 224.405 4.028 225.433 3.92 226.326 3.882 C 227.233 3.844 227.953 3.879 228.379 3.985 L 228.5 3.5 L 228.621 3.015 C 228.047 2.871 227.205 2.844 226.283 2.883 C 225.348 2.923 224.283 3.035 223.238 3.193 C 222.193 3.351 221.159 3.558 220.286 3.79 C 219.432 4.017 218.673 4.284 218.223 4.584 L 218.5 5 Z M 228.5 3.5 L 228.379 3.985 C 229.464 4.256 231.16 4.249 232.727 4.123 C 234.301 3.997 235.85 3.744 236.658 3.474 L 236.5 3 L 236.342 2.526 C 235.65 2.756 234.199 3.002 232.648 3.127 C 231.09 3.251 229.536 3.244 228.621 3.015 L 228.5 3.5 Z M 236.5 3 L 236.658 3.474 C 237.44 3.214 237.725 3.125 238 3.125 C 238.275 3.125 238.559 3.214 239.342 3.474 L 239.5 3 L 239.658 2.526 C 238.94 2.286 238.475 2.125 238 2.125 C 237.525 2.125 237.059 2.286 236.342 2.526 L 236.5 3 Z M 239.5 3 L 239.336 3.472 L 239.336 3.472 L 239.5 3 L 239.664 2.528 L 239.663 2.527 L 239.5 3 Z M 239.5 3 L 239.342 3.474 C 239.825 3.635 240.384 3.624 240.92 3.55 C 241.465 3.474 242.04 3.326 242.579 3.167 C 242.849 3.088 243.115 3.004 243.366 2.925 C 243.619 2.845 243.855 2.771 244.073 2.706 C 244.531 2.569 244.835 2.5 245 2.5 L 245 2 L 245 1.5 C 244.665 1.5 244.219 1.618 243.787 1.747 C 243.559 1.815 243.315 1.893 243.066 1.971 C 242.815 2.05 242.557 2.131 242.296 2.208 C 241.773 2.362 241.254 2.494 240.783 2.559 C 240.304 2.626 239.925 2.615 239.658 2.526 L 239.5 3 Z M 245 2 L 245 2.5 C 245.451 2.5 246.148 2.615 246.986 2.744 C 247.794 2.868 248.706 3 249.5 3 L 249.5 2.5 L 249.5 2 C 248.794 2 247.956 1.882 247.139 1.756 C 246.352 1.635 245.549 1.5 245 1.5 L 245 2 Z M 249.5 2.5 L 249.5 3 C 249.824 3 250.749 3.116 252.063 3.344 C 253.358 3.569 254.989 3.895 256.697 4.299 C 260.141 5.113 263.814 6.223 265.735 7.424 L 266 7 L 266.265 6.576 C 264.186 5.277 260.359 4.137 256.928 3.326 C 255.199 2.917 253.548 2.587 252.234 2.359 C 250.938 2.134 249.926 2 249.5 2 L 249.5 2.5 Z M 266 7 L 265.735 7.424 C 267.753 8.685 272.543 11.082 277.388 13.69 C 282.276 16.322 287.219 19.169 289.666 21.372 L 290 21 L 290.334 20.628 C 287.781 18.331 282.724 15.428 277.862 12.81 C 272.957 10.168 268.247 7.815 266.265 6.576 L 266 7 Z M 290 21 L 289.666 21.372 C 292.12 23.581 293.828 26.147 295.478 28.304 C 297.087 30.408 298.703 32.217 300.938 32.496 L 301 32 L 301.062 31.504 C 299.297 31.283 297.913 29.842 296.272 27.696 C 294.672 25.603 292.88 22.919 290.334 20.628 L 290 21 Z M 301 32 L 300.938 32.496 C 304.965 33 314.487 33.5 320.5 33.5 L 320.5 33 L 320.5 32.5 C 314.513 32.5 305.035 32 301.062 31.504 L 301 32 Z M 320.5 33 L 320.5 33.5 C 323.638 33.5 325.493 32.444 326.931 31.333 C 327.283 31.061 327.612 30.784 327.92 30.528 C 328.231 30.268 328.52 30.03 328.811 29.818 C 329.388 29.396 329.94 29.1 330.582 28.993 L 330.5 28.5 L 330.418 28.007 C 329.56 28.15 328.862 28.542 328.221 29.01 C 327.902 29.244 327.59 29.501 327.28 29.759 C 326.966 30.021 326.654 30.283 326.319 30.542 C 325.007 31.556 323.362 32.5 320.5 32.5 L 320.5 33 Z M 330.5 28.5 L 330.582 28.993 C 332.021 28.753 338.36 27.988 344.527 26.867 C 347.627 26.303 350.726 25.643 353.213 24.901 C 354.456 24.53 355.56 24.135 356.439 23.715 C 357.301 23.303 358.017 22.837 358.407 22.291 L 358 22 L 357.593 21.709 C 357.358 22.038 356.84 22.416 356.008 22.812 C 355.194 23.201 354.145 23.579 352.927 23.943 C 350.493 24.669 347.436 25.322 344.348 25.883 C 338.14 27.012 331.979 27.747 330.418 28.007 L 330.5 28.5 Z M 358 22 L 358.407 22.291 C 360.76 18.996 365.541 17.506 370.955 17.998 L 371 17.5 L 371.045 17.002 C 365.459 16.494 360.24 18.004 357.593 21.709 L 358 22 Z M 371 17.5 L 370.955 17.998 C 373.684 18.246 377.836 18.749 382.159 18.999 C 386.479 19.25 391.035 19.254 394.605 18.489 L 394.5 18 L 394.395 17.511 C 390.965 18.246 386.521 18.25 382.216 18.001 C 377.914 17.751 373.816 17.254 371.045 17.002 L 371 17.5 Z M 394.5 18 L 394.605 18.489 C 398.095 17.741 401.587 17.117 404.461 16.618 C 407.318 16.121 409.598 15.741 410.621 15.485 L 410.5 15 L 410.379 14.515 C 409.402 14.759 407.182 15.129 404.289 15.632 C 401.413 16.133 397.905 16.759 394.395 17.511 L 394.5 18 Z M 410.5 15 L 410.621 15.485 C 411.651 15.228 417.173 13.469 422.867 11.279 C 425.717 10.183 428.623 8.974 431.041 7.785 C 432.25 7.19 433.343 6.597 434.249 6.023 C 435.149 5.453 435.892 4.883 436.376 4.329 L 436 4 L 435.624 3.671 C 435.233 4.117 434.586 4.626 433.714 5.178 C 432.848 5.727 431.789 6.302 430.6 6.887 C 428.22 8.058 425.345 9.255 422.508 10.346 C 416.827 12.531 411.349 14.272 410.379 14.515 L 410.5 15 Z M 436 4 L 436.376 4.329 C 437.152 3.442 438.69 2.662 440.834 2.043 C 442.957 1.43 445.594 0.996 448.48 0.748 C 454.253 0.252 460.959 0.501 466.411 1.492 L 466.5 1 L 466.589 0.508 C 461.041 -0.501 454.247 -0.752 448.395 -0.248 C 445.468 0.004 442.762 0.445 440.557 1.082 C 438.373 1.713 436.598 2.558 435.624 3.671 L 436 4 Z M 466.5 1 L 466.411 1.492 C 471.902 2.49 479.145 3.989 485.515 5.425 C 491.902 6.865 497.364 8.233 499.324 8.968 L 499.5 8.5 L 499.676 8.032 C 497.636 7.267 492.098 5.885 485.735 4.45 C 479.355 3.011 472.098 1.51 466.589 0.508 L 466.5 1 Z M 499.5 8.5 L 499.324 8.968 C 503.307 10.461 507.256 12.442 509.2 13.9 L 509.5 13.5 L 509.8 13.1 C 507.744 11.558 503.693 9.539 499.676 8.032 L 499.5 8.5 Z M 509.5 13.5 L 509.2 13.9 C 509.636 14.227 510.1 14.769 510.576 15.444 C 511.047 16.113 511.506 16.878 511.943 17.627 C 512.375 18.367 512.79 19.102 513.157 19.675 C 513.341 19.963 513.521 20.225 513.694 20.435 C 513.857 20.633 514.053 20.835 514.276 20.947 L 514.5 20.5 L 514.724 20.053 C 514.697 20.04 514.612 19.976 514.466 19.799 C 514.33 19.635 514.175 19.412 513.999 19.137 C 513.647 18.586 513.25 17.883 512.807 17.123 C 512.369 16.372 511.891 15.575 511.393 14.868 C 510.9 14.168 510.364 13.523 509.8 13.1 L 509.5 13.5 Z M 514.5 20.5 L 514.276 20.947 C 514.498 21.058 514.765 21.093 515.009 21.102 C 515.264 21.112 515.557 21.096 515.866 21.068 C 516.475 21.013 517.238 20.9 517.997 20.809 C 518.772 20.716 519.575 20.641 520.331 20.648 C 521.091 20.656 521.771 20.747 522.314 20.964 L 522.5 20.5 L 522.686 20.036 C 521.979 19.753 521.159 19.657 520.341 19.648 C 519.519 19.64 518.665 19.722 517.878 19.816 C 517.074 19.913 516.369 20.018 515.775 20.072 C 515.483 20.099 515.24 20.11 515.048 20.103 C 514.845 20.095 514.752 20.067 514.724 20.053 L 514.5 20.5 Z M 522.5 20.5 L 522.314 20.964 C 523.493 21.436 525.07 22.521 526.444 23.583 C 527.811 24.639 528.917 25.625 529.146 25.854 L 529.5 25.5 L 529.854 25.146 C 529.583 24.875 528.439 23.861 527.056 22.792 C 525.68 21.729 524.007 20.564 522.686 20.036 L 522.5 20.5 Z M 529.5 25.5 L 529.146 25.854 C 529.209 25.916 529.357 26.03 529.525 26.156 C 529.711 26.296 529.969 26.486 530.288 26.717 C 530.927 27.179 531.818 27.812 532.894 28.559 C 535.047 30.054 537.943 32.011 541.044 33.984 C 544.143 35.957 547.453 37.949 550.432 39.513 C 553.389 41.066 556.084 42.231 557.929 42.495 L 558 42 L 558.071 41.505 C 556.416 41.269 553.861 40.184 550.896 38.628 C 547.953 37.082 544.669 35.106 541.581 33.141 C 538.494 31.176 535.609 29.227 533.465 27.738 C 532.393 26.993 531.507 26.364 530.874 25.906 C 530.558 25.677 530.306 25.492 530.126 25.357 C 529.928 25.208 529.853 25.146 529.854 25.146 L 529.5 25.5 Z M 558 42 L 557.929 42.495 C 561.514 43.007 564.459 42.493 566.828 42.119 C 568.022 41.93 569.042 41.782 569.945 41.797 C 570.836 41.811 571.577 41.985 572.223 42.416 L 572.5 42 L 572.777 41.584 C 571.923 41.015 570.976 40.814 569.961 40.797 C 568.958 40.78 567.853 40.945 566.672 41.131 C 564.291 41.507 561.486 41.993 558.071 41.505 L 558 42 Z M 572.5 42 L 572.223 42.416 C 573.714 43.41 574.701 44.151 575.584 44.782 C 576.468 45.413 577.243 45.93 578.276 46.447 L 578.5 46 L 578.724 45.553 C 577.757 45.07 577.032 44.587 576.166 43.968 C 575.299 43.349 574.286 42.59 572.777 41.584 L 572.5 42 Z M 578.5 46 L 578.276 46.447 C 578.861 46.739 579.561 46.872 580.303 46.921 C 581.049 46.97 581.873 46.937 582.724 46.874 C 584.455 46.745 586.273 46.5 588 46.5 L 588 46 L 588 45.5 C 586.227 45.5 584.295 45.755 582.651 45.876 C 581.814 45.938 581.045 45.968 580.369 45.923 C 579.689 45.878 579.139 45.761 578.724 45.553 L 578.5 46 Z M 588 46 L 588 46.5 C 588.5 46.5 589.134 46.386 589.841 46.216 C 590.556 46.043 591.382 45.803 592.277 45.533 C 594.076 44.991 596.167 44.325 598.307 43.798 C 600.448 43.27 602.604 42.891 604.518 42.914 C 606.436 42.937 608.044 43.362 609.166 44.372 L 609.5 44 L 609.834 43.628 C 608.456 42.388 606.564 41.938 604.529 41.914 C 602.49 41.89 600.239 42.292 598.068 42.827 C 595.895 43.362 593.768 44.04 591.989 44.576 C 591.095 44.845 590.292 45.078 589.606 45.243 C 588.913 45.411 588.375 45.5 588 45.5 L 588 46 Z M 609.5 44 L 609.166 44.372 C 611.683 46.637 614.332 48.657 616.614 50.052 C 617.754 50.748 618.815 51.297 619.731 51.64 C 620.622 51.974 621.465 52.149 622.121 51.985 L 622 51.5 L 621.879 51.015 C 621.535 51.101 620.94 51.026 620.082 50.704 C 619.247 50.391 618.246 49.877 617.136 49.198 C 614.918 47.843 612.317 45.863 609.834 43.628 L 609.5 44 Z M 622 51.5 L 622.121 51.985 C 622.742 51.83 623.415 51.352 624.073 50.818 C 624.731 50.283 625.51 49.574 626.259 48.945 C 627.033 48.295 627.833 47.679 628.643 47.225 C 629.454 46.771 630.243 46.5 631 46.5 L 631 46 L 631 45.5 C 630.007 45.5 629.046 45.854 628.154 46.353 C 627.261 46.853 626.404 47.517 625.616 48.18 C 624.802 48.863 624.112 49.498 623.443 50.041 C 622.773 50.585 622.258 50.92 621.879 51.015 L 622 51.5 Z M 631 46 L 631 46.5 C 632.44 46.5 635.434 46.161 638.553 45.746 C 641.688 45.328 644.992 44.828 647.079 44.494 L 647 44 L 646.921 43.506 C 644.841 43.839 641.545 44.338 638.422 44.754 C 635.283 45.172 632.36 45.5 631 45.5 L 631 46 Z M 647 44 L 647.171 44.47 C 648.995 43.807 651.958 42.811 654.91 41.981 C 657.883 41.146 660.778 40.5 662.5 40.5 L 662.5 40 L 662.5 39.5 C 660.622 39.5 657.6 40.187 654.64 41.019 C 651.659 41.856 648.672 42.86 646.829 43.53 L 647 44 Z M 662.5 40 L 662.5 40.5 C 664.71 40.5 666.43 40.745 667.918 40.993 C 669.392 41.239 670.697 41.5 672 41.5 L 672 41 L 672 40.5 C 670.803 40.5 669.608 40.261 668.082 40.007 C 666.57 39.755 664.79 39.5 662.5 39.5 L 662.5 40 Z M 672 41 L 672 41.5 C 673.341 41.5 675.051 40.969 676.705 40.479 C 678.408 39.975 680.086 39.5 681.5 39.5 L 681.5 39 L 681.5 38.5 C 679.914 38.5 678.092 39.025 676.42 39.521 C 674.699 40.031 673.159 40.5 672 40.5 L 672 41 Z M 681.5 39 L 681.5 39.5 C 682.305 39.5 683.391 39.301 684.61 39.086 C 685.852 38.867 687.284 38.621 688.852 38.498 C 691.983 38.253 695.627 38.501 699.265 40.441 L 699.5 40 L 699.735 39.559 C 695.873 37.499 692.017 37.247 688.773 37.502 C 687.153 37.629 685.679 37.883 684.437 38.101 C 683.172 38.324 682.195 38.5 681.5 38.5 L 681.5 39 Z M 699.5 40 L 699.265 40.441 C 702.997 42.432 705.732 44.172 707.657 45.476 C 708.621 46.129 709.382 46.673 709.969 47.088 C 710.54 47.491 710.984 47.801 711.276 47.947 L 711.5 47.5 L 711.724 47.053 C 711.516 46.949 711.148 46.696 710.546 46.271 C 709.962 45.859 709.192 45.308 708.218 44.649 C 706.268 43.328 703.503 41.568 699.735 39.559 L 699.5 40 Z M 711.5 47.5 L 711.276 47.947 C 711.342 47.98 711.441 48.052 711.619 48.2 C 711.782 48.336 712.001 48.524 712.262 48.729 C 712.794 49.147 713.531 49.654 714.606 50.143 C 716.751 51.118 720.201 52 726 52 L 726 51.5 L 726 51 C 720.299 51 716.999 50.132 715.019 49.232 C 714.031 48.783 713.362 48.321 712.879 47.943 C 712.632 47.749 712.44 47.582 712.258 47.431 C 712.09 47.292 711.908 47.145 711.724 47.053 L 711.5 47.5 Z M 726 51.5 L 726 52 C 731.771 52 735.219 52.002 737.793 52.431 C 740.319 52.852 741.994 53.684 744.193 55.395 L 744.5 55 L 744.807 54.605 C 742.506 52.816 740.681 51.898 737.957 51.444 C 735.281 50.998 731.729 51 726 51 L 726 51.5 Z M 744.5 55 L 744.193 55.395 C 746.55 57.228 750.16 58.242 753.934 58.746 C 757.726 59.251 761.761 59.251 765.038 58.999 L 765 58.5 L 764.962 58.001 C 761.739 58.249 757.774 58.249 754.066 57.754 C 750.34 57.258 746.95 56.272 744.807 54.605 L 744.5 55 Z M 765 58.5 L 765.038 58.999 C 768.495 58.733 770.114 56.843 771.354 55.604 C 771.991 54.966 772.451 54.585 772.964 54.492 C 773.444 54.405 774.111 54.553 775.193 55.395 L 775.5 55 L 775.807 54.605 C 774.639 53.697 773.681 53.345 772.786 53.508 C 771.924 53.665 771.259 54.284 770.646 54.896 C 769.386 56.157 768.005 57.767 764.962 58.001 L 765 58.5 Z M 775.5 55 L 775.193 55.395 C 777.343 57.067 777.366 58.245 778.069 59.441 C 778.437 60.066 778.957 60.59 779.943 61.014 C 780.901 61.426 782.303 61.745 784.442 61.997 L 784.5 61.5 L 784.558 61.003 C 782.447 60.755 781.161 60.449 780.338 60.095 C 779.543 59.754 779.188 59.372 778.931 58.934 C 778.384 58.005 778.157 56.433 775.807 54.605 L 775.5 55 Z M 784.5 61.5 L 784.442 61.997 C 788.769 62.506 795.21 61.743 800.889 60.869 C 803.737 60.431 806.416 59.961 808.559 59.603 C 810.73 59.239 812.302 59 813 59 L 813 58.5 L 813 58 C 812.198 58 810.52 58.261 808.394 58.616 C 806.241 58.976 803.576 59.444 800.736 59.881 C 795.04 60.757 788.731 61.494 784.558 61.003 L 784.5 61.5 Z M 813 58.5 L 813 59 C 813.651 59 814.7 59.281 816.008 59.759 C 817.295 60.229 818.766 60.863 820.234 61.519 C 821.693 62.171 823.158 62.848 824.403 63.388 C 825.634 63.923 826.715 64.353 827.402 64.49 L 827.5 64 L 827.598 63.51 C 827.035 63.397 826.054 63.015 824.801 62.471 C 823.561 61.933 822.12 61.267 820.641 60.606 C 819.171 59.949 817.673 59.302 816.351 58.819 C 815.05 58.344 813.849 58 813 58 L 813 58.5 Z M 827.5 64 L 827.402 64.49 C 828.075 64.625 829.115 64.687 830.303 64.711 C 831.501 64.734 832.884 64.719 834.261 64.687 C 837.036 64.624 839.755 64.5 841 64.5 L 841 64 L 841 63.5 C 839.745 63.5 836.964 63.626 834.239 63.688 C 832.866 63.719 831.499 63.734 830.322 63.711 C 829.135 63.688 828.175 63.625 827.598 63.51 L 827.5 64 Z M 841 64 L 841 64.5 L 849.5 64.5 L 849.5 64 L 849.5 63.5 L 841 63.5 L 841 64 Z M 849.5 64 L 849.001 63.966 L 840.501 187.466 L 841 187.5 L 841.499 187.534 L 849.999 64.034 L 849.5 64 Z M 653 183.588 L 652.558 183.354 C 652.503 183.458 652.295 183.654 651.866 183.883 C 651.463 184.098 650.943 184.301 650.384 184.461 C 649.826 184.621 649.245 184.734 648.722 184.775 C 648.189 184.817 647.764 184.781 647.49 184.683 L 647.32 185.153 L 647.151 185.624 C 647.621 185.793 648.212 185.819 648.801 185.772 C 649.401 185.725 650.049 185.598 650.659 185.423 C 651.269 185.248 651.857 185.021 652.336 184.766 C 652.788 184.525 653.235 184.211 653.442 183.822 L 653 183.588 Z M 647.32 185.153 L 647.49 184.683 C 646.334 184.266 644.745 183.474 644.092 183.127 L 643.858 183.569 L 643.623 184.011 C 644.287 184.363 645.926 185.182 647.151 185.624 L 647.32 185.153 Z M 643.858 183.569 L 643.711 183.091 C 642.7 183.401 641.157 183.891 639.814 184.353 C 639.143 184.584 638.516 184.809 638.028 185.003 C 637.785 185.1 637.57 185.191 637.399 185.273 C 637.25 185.345 637.071 185.439 636.954 185.549 L 637.299 185.911 L 637.644 186.273 C 637.63 186.287 637.669 186.253 637.832 186.175 C 637.974 186.107 638.165 186.025 638.398 185.932 C 638.864 185.747 639.473 185.527 640.139 185.299 C 641.468 184.841 643 184.355 644.004 184.047 L 643.858 183.569 Z M 637.299 185.911 L 636.954 185.549 C 636.859 185.64 636.45 185.949 635.826 186.388 C 635.219 186.815 634.446 187.34 633.658 187.848 C 632.868 188.357 632.071 188.846 631.414 189.204 C 631.084 189.384 630.798 189.526 630.571 189.621 C 630.457 189.668 630.366 189.701 630.296 189.72 C 630.219 189.742 630.194 189.741 630.205 189.741 L 630.193 190.241 L 630.18 190.741 C 630.424 190.747 630.71 190.646 630.957 190.543 C 631.229 190.429 631.548 190.27 631.892 190.082 C 632.581 189.707 633.401 189.203 634.2 188.688 C 635 188.172 635.784 187.64 636.401 187.206 C 637.001 186.784 637.483 186.427 637.644 186.273 L 637.299 185.911 Z M 630.193 190.241 L 630.205 189.741 C 629.754 189.73 629.421 189.961 629.203 190.261 C 628.998 190.541 628.879 190.898 628.803 191.235 C 628.65 191.913 628.632 192.714 628.62 193.204 L 629.12 193.216 L 629.62 193.228 C 629.633 192.718 629.651 192.019 629.778 191.454 C 629.842 191.17 629.924 190.968 630.011 190.849 C 630.084 190.749 630.132 190.74 630.18 190.741 L 630.193 190.241 Z M 629.12 193.216 L 628.62 193.204 L 628.56 195.703 L 629.06 195.715 L 629.56 195.727 L 629.62 193.228 L 629.12 193.216 Z M 629.06 195.715 L 628.582 195.862 C 628.885 196.851 629.264 198.379 629.417 199.743 C 629.494 200.427 629.511 201.043 629.445 201.519 C 629.375 202.023 629.232 202.234 629.123 202.303 L 629.391 202.725 L 629.658 203.148 C 630.159 202.831 630.357 202.225 630.435 201.657 C 630.518 201.061 630.492 200.351 630.411 199.631 C 630.249 198.186 629.853 196.595 629.538 195.569 L 629.06 195.715 Z M 629.391 202.725 L 629.123 202.303 C 628.819 202.495 628.197 202.714 627.343 202.919 C 626.508 203.12 625.506 203.296 624.485 203.425 C 623.464 203.555 622.433 203.637 621.54 203.654 C 620.633 203.67 619.913 203.618 619.49 203.501 L 619.357 203.983 L 619.224 204.465 C 619.795 204.623 620.636 204.67 621.558 204.653 C 622.495 204.636 623.562 204.55 624.611 204.417 C 625.659 204.284 626.698 204.103 627.576 203.892 C 628.436 203.685 629.201 203.437 629.658 203.148 L 629.391 202.725 Z M 619.357 203.983 L 619.49 203.501 C 618.412 203.204 616.717 203.17 615.146 203.258 C 613.57 203.346 612.016 203.562 611.201 203.812 L 611.348 204.29 L 611.494 204.768 C 612.191 204.554 613.648 204.343 615.202 204.256 C 616.762 204.169 618.315 204.215 619.224 204.465 L 619.357 203.983 Z M 611.348 204.29 L 611.201 203.812 C 610.412 204.054 610.126 204.135 609.851 204.129 C 609.576 204.122 609.294 204.027 608.518 203.747 L 608.349 204.217 L 608.179 204.688 C 608.891 204.944 609.352 205.117 609.827 205.128 C 610.302 205.14 610.771 204.99 611.494 204.768 L 611.348 204.29 Z M 608.349 204.217 L 608.518 203.747 C 608.039 203.574 607.48 203.572 606.942 203.633 C 606.396 203.695 605.817 203.83 605.275 203.976 C 605.002 204.049 604.735 204.126 604.482 204.199 C 604.227 204.272 603.99 204.341 603.77 204.401 C 603.309 204.527 603.003 204.588 602.838 204.584 L 602.826 205.084 L 602.814 205.584 C 603.149 205.592 603.597 205.485 604.033 205.366 C 604.262 205.304 604.508 205.232 604.759 205.16 C 605.012 205.087 605.271 205.012 605.534 204.942 C 606.061 204.8 606.583 204.681 607.055 204.627 C 607.536 204.572 607.914 204.592 608.179 204.688 L 608.349 204.217 Z M 602.826 205.084 L 602.838 204.584 C 602.387 204.573 601.693 204.441 600.858 204.292 C 600.053 204.148 599.145 203.995 598.351 203.976 L 598.339 204.476 L 598.327 204.975 C 599.033 204.992 599.868 205.131 600.682 205.277 C 601.466 205.417 602.265 205.571 602.814 205.584 L 602.826 205.084 Z M 598.339 204.476 L 598.351 203.976 C 598.027 203.968 597.106 203.83 595.798 203.57 C 594.508 203.314 592.886 202.948 591.187 202.503 C 587.765 201.606 584.12 200.408 582.228 199.161 L 581.953 199.578 L 581.678 199.996 C 583.725 201.345 587.523 202.577 590.934 203.471 C 592.652 203.921 594.294 204.291 595.603 204.551 C 596.892 204.807 597.901 204.965 598.327 204.975 L 598.339 204.476 Z M 581.953 199.578 L 582.228 199.161 C 580.242 197.852 575.51 195.34 570.73 192.615 C 565.907 189.865 561.034 186.9 558.641 184.639 L 558.298 185.003 L 557.955 185.366 C 560.452 187.725 565.438 190.749 570.235 193.484 C 575.075 196.243 579.726 198.709 581.678 199.996 L 581.953 199.578 Z M 558.298 185.003 L 558.641 184.639 C 556.241 182.371 554.595 179.765 552.998 177.569 C 551.44 175.426 549.868 173.579 547.641 173.246 L 547.567 173.74 L 547.493 174.235 C 549.252 174.498 550.601 175.972 552.189 178.157 C 553.739 180.288 555.466 183.015 557.955 185.366 L 558.298 185.003 Z M 547.567 173.74 L 547.641 173.246 C 543.627 172.645 534.12 171.915 528.109 171.77 L 528.097 172.269 L 528.085 172.769 C 534.07 172.914 543.533 173.642 547.493 174.235 L 547.567 173.74 Z M 528.097 172.269 L 528.109 171.77 C 524.971 171.694 523.092 172.705 521.628 173.78 C 521.268 174.044 520.933 174.313 520.62 174.562 C 520.302 174.813 520.007 175.045 519.712 175.25 C 519.124 175.658 518.565 175.94 517.921 176.032 L 517.991 176.527 L 518.061 177.022 C 518.922 176.899 519.63 176.524 520.282 176.071 C 520.607 175.846 520.925 175.596 521.241 175.345 C 521.561 175.092 521.879 174.837 522.22 174.586 C 523.556 173.604 525.224 172.7 528.085 172.769 L 528.097 172.269 Z M 517.991 176.527 L 517.921 176.032 C 516.476 176.237 510.121 176.848 503.929 177.82 C 500.816 178.309 497.702 178.894 495.197 179.576 C 493.946 179.917 492.833 180.285 491.944 180.684 C 491.072 181.074 490.345 181.524 489.942 182.06 L 490.342 182.36 L 490.742 182.661 C 490.985 182.337 491.512 181.973 492.353 181.596 C 493.176 181.227 494.234 180.875 495.46 180.541 C 497.912 179.873 500.984 179.295 504.084 178.808 C 510.317 177.83 516.494 177.244 518.061 177.022 L 517.991 176.527 Z M 490.342 182.36 L 489.942 182.06 C 487.51 185.297 482.695 186.671 477.294 186.048 L 477.237 186.545 L 477.18 187.042 C 482.752 187.684 488.006 186.301 490.742 182.661 L 490.342 182.36 Z M 477.237 186.545 L 477.294 186.048 C 474.572 185.734 470.433 185.132 466.118 184.777 C 461.805 184.422 457.25 184.308 453.663 184.986 L 453.756 185.478 L 453.849 185.969 C 457.296 185.317 461.739 185.42 466.036 185.773 C 470.331 186.127 474.416 186.723 477.18 187.042 L 477.237 186.545 Z M 453.756 185.478 L 453.663 184.986 C 450.156 185.65 446.65 186.189 443.765 186.619 C 440.896 187.047 438.608 187.371 437.579 187.602 L 437.688 188.09 L 437.798 188.578 C 438.78 188.357 441.009 188.041 443.912 187.608 C 446.8 187.177 450.322 186.636 453.849 185.969 L 453.756 185.478 Z M 437.688 188.09 L 437.579 187.602 C 436.543 187.835 430.98 189.459 425.235 191.511 C 422.359 192.538 419.425 193.677 416.979 194.807 C 415.756 195.372 414.649 195.939 413.729 196.491 C 412.816 197.039 412.06 197.591 411.562 198.133 L 411.93 198.471 L 412.298 198.809 C 412.699 198.373 413.359 197.88 414.244 197.348 C 415.122 196.821 416.195 196.271 417.399 195.715 C 419.805 194.602 422.709 193.475 425.571 192.453 C 431.304 190.406 436.822 188.797 437.798 188.578 L 437.688 188.09 Z M 411.93 198.471 L 411.562 198.133 C 410.765 199.001 409.209 199.743 407.05 200.311 C 404.913 200.872 402.266 201.242 399.375 201.42 C 393.591 201.777 386.894 201.366 381.468 200.244 L 381.366 200.733 L 381.265 201.223 C 386.787 202.365 393.574 202.78 399.436 202.418 C 402.368 202.238 405.084 201.861 407.304 201.278 C 409.503 200.7 411.298 199.898 412.298 198.809 L 411.93 198.471 Z M 381.366 200.733 L 381.468 200.244 C 376.002 199.113 368.797 197.44 362.464 195.85 C 356.113 194.256 350.686 192.757 348.744 191.975 L 348.557 192.438 L 348.37 192.902 C 350.391 193.716 355.894 195.232 362.22 196.82 C 368.564 198.412 375.783 200.089 381.265 201.223 L 381.366 200.733 Z M 348.557 192.438 L 348.744 191.975 C 344.799 190.385 340.899 188.31 338.99 186.806 L 338.681 187.198 L 338.371 187.591 C 340.389 189.182 344.39 191.299 348.37 192.902 L 348.557 192.438 Z M 338.681 187.198 L 338.99 186.806 C 338.562 186.468 338.112 185.915 337.653 185.229 C 337.198 184.549 336.757 183.773 336.338 183.014 C 335.925 182.263 335.527 181.519 335.174 180.936 C 334.997 180.644 334.823 180.378 334.656 180.164 C 334.497 179.962 334.307 179.755 334.086 179.638 L 333.851 180.08 L 333.617 180.521 C 333.643 180.535 333.727 180.6 333.868 180.781 C 334 180.949 334.15 181.176 334.319 181.454 C 334.658 182.014 335.038 182.726 335.462 183.496 C 335.883 184.258 336.341 185.067 336.821 185.785 C 337.297 186.496 337.818 187.155 338.371 187.591 L 338.681 187.198 Z M 333.851 180.08 L 334.086 179.638 C 333.867 179.522 333.601 179.481 333.357 179.465 C 333.102 179.449 332.81 179.458 332.5 179.478 C 331.889 179.519 331.123 179.614 330.363 179.686 C 329.586 179.76 328.781 179.816 328.026 179.79 C 327.266 179.764 326.589 179.657 326.051 179.427 L 325.854 179.886 L 325.657 180.346 C 326.357 180.646 327.174 180.762 327.992 180.79 C 328.813 180.818 329.669 180.757 330.458 180.682 C 331.264 180.605 331.972 180.516 332.566 180.476 C 332.86 180.457 333.102 180.451 333.294 180.463 C 333.497 180.476 333.589 180.507 333.617 180.521 L 333.851 180.08 Z M 325.854 179.886 L 326.051 179.427 C 324.883 178.927 323.334 177.804 321.985 176.709 C 320.644 175.62 319.562 174.608 319.339 174.374 L 318.977 174.719 L 318.615 175.064 C 318.879 175.341 319.998 176.383 321.355 177.485 C 322.704 178.581 324.349 179.786 325.657 180.346 L 325.854 179.886 Z M 318.977 174.719 L 319.339 174.374 C 319.277 174.31 319.132 174.192 318.967 174.062 C 318.784 173.917 318.532 173.722 318.218 173.483 C 317.591 173.006 316.715 172.352 315.657 171.578 C 313.541 170.032 310.693 168.005 307.641 165.958 C 304.59 163.911 301.329 161.839 298.39 160.204 C 295.47 158.58 292.805 157.35 290.966 157.042 L 290.884 157.535 L 290.801 158.028 C 292.449 158.304 294.978 159.451 297.903 161.078 C 300.809 162.694 304.044 164.749 307.084 166.788 C 310.122 168.827 312.959 170.845 315.067 172.386 C 316.121 173.156 316.991 173.806 317.613 174.279 C 317.924 174.516 318.171 174.707 318.347 174.846 C 318.542 175 318.615 175.064 318.615 175.064 L 318.977 174.719 Z M 290.884 157.535 L 290.966 157.042 C 287.395 156.443 284.438 156.886 282.061 157.203 C 280.862 157.363 279.839 157.486 278.937 157.45 C 278.047 157.413 277.31 157.222 276.675 156.776 L 276.388 157.185 L 276.1 157.594 C 276.94 158.184 277.882 158.408 278.897 158.449 C 279.9 158.489 281.008 158.352 282.193 158.194 C 284.582 157.876 287.398 157.458 290.801 158.028 L 290.884 157.535 Z M 276.388 157.185 L 276.675 156.776 C 275.208 155.746 274.24 154.982 273.371 154.329 C 272.503 153.677 271.741 153.141 270.72 152.599 L 270.486 153.041 L 270.252 153.483 C 271.206 153.989 271.92 154.489 272.771 155.129 C 273.622 155.768 274.616 156.552 276.1 157.594 L 276.388 157.185 Z M 270.486 153.041 L 270.72 152.599 C 270.143 152.293 269.447 152.144 268.706 152.077 C 267.961 152.01 267.136 152.023 266.284 152.066 C 264.551 152.152 262.727 152.353 261.001 152.312 L 260.989 152.812 L 260.977 153.311 C 262.749 153.354 264.687 153.146 266.334 153.064 C 267.171 153.023 267.941 153.012 268.616 153.073 C 269.294 153.134 269.841 153.265 270.252 153.483 L 270.486 153.041 Z M 260.989 152.812 L 261.001 152.312 C 260.478 152.299 259.778 152.453 258.991 152.685 C 258.19 152.921 257.241 153.256 256.201 153.64 C 254.109 154.412 251.635 155.387 249.109 156.224 C 246.582 157.061 244.046 157.746 241.853 157.94 C 239.64 158.137 237.905 157.824 236.843 156.821 L 236.5 157.185 L 236.157 157.548 C 237.54 158.855 239.651 159.14 241.941 158.936 C 244.252 158.731 246.876 158.017 249.423 157.173 C 251.971 156.329 254.483 155.34 256.547 154.578 C 257.584 154.195 258.506 153.87 259.274 153.644 C 260.056 153.414 260.625 153.303 260.977 153.311 L 260.989 152.812 Z M 236.5 157.185 L 236.843 156.821 C 234.382 154.496 231.782 152.412 229.534 150.963 C 228.411 150.239 227.364 149.665 226.457 149.3 C 225.573 148.944 224.735 148.749 224.075 148.897 L 224.185 149.385 L 224.294 149.873 C 224.64 149.795 225.233 149.885 226.083 150.227 C 226.91 150.56 227.899 151.098 228.992 151.803 C 231.177 153.212 233.729 155.254 236.157 157.548 L 236.5 157.185 Z M 224.185 149.385 L 224.075 148.897 C 223.451 149.037 222.767 149.499 222.096 150.017 C 221.425 150.535 220.629 151.225 219.865 151.836 C 219.076 152.467 218.262 153.064 217.441 153.498 C 216.619 153.932 215.824 154.184 215.067 154.166 L 215.055 154.666 L 215.043 155.166 C 216.035 155.19 217.004 154.86 217.908 154.382 C 218.813 153.904 219.686 153.26 220.49 152.617 C 221.32 151.953 222.025 151.336 222.707 150.808 C 223.39 150.281 223.913 149.958 224.294 149.873 L 224.185 149.385 Z M 215.055 154.666 L 215.067 154.166 C 213.627 154.131 210.626 154.398 207.497 154.738 C 204.354 155.079 201.038 155.5 198.944 155.783 L 199.011 156.279 L 199.078 156.774 C 201.166 156.492 204.472 156.072 207.605 155.732 C 210.753 155.39 213.683 155.133 215.043 155.166 L 215.055 154.666 Z M 199.011 156.279 L 198.851 155.805 C 197.012 156.424 194.026 157.348 191.054 158.106 C 188.062 158.869 185.152 159.445 183.431 159.403 L 183.419 159.903 L 183.407 160.403 C 185.285 160.449 188.322 159.835 191.301 159.075 C 194.302 158.31 197.312 157.378 199.17 156.753 L 199.011 156.279 Z M 183.419 159.903 L 183.431 159.403 C 181.221 159.35 179.508 159.063 178.027 158.78 C 176.559 158.498 175.26 158.206 173.958 158.174 L 173.946 158.674 L 173.934 159.174 C 175.13 159.203 176.319 159.471 177.838 159.762 C 179.344 160.05 181.118 160.348 183.407 160.403 L 183.419 159.903 Z M 173.946 158.674 L 173.958 158.174 C 172.617 158.142 170.895 158.631 169.23 159.081 C 167.514 159.545 165.826 159.978 164.412 159.944 L 164.4 160.444 L 164.388 160.944 C 165.974 160.982 167.808 160.501 169.491 160.046 C 171.224 159.578 172.775 159.146 173.934 159.174 L 173.946 158.674 Z M 164.4 160.444 L 164.412 159.944 C 163.608 159.925 162.518 160.098 161.293 160.283 C 160.046 160.471 158.609 160.683 157.039 160.768 C 153.903 160.938 150.265 160.601 146.676 158.574 L 146.43 159.01 L 146.184 159.445 C 149.996 161.598 153.844 161.942 157.093 161.766 C 158.715 161.679 160.195 161.46 161.443 161.272 C 162.712 161.079 163.693 160.927 164.388 160.944 L 164.4 160.444 Z M 146.43 159.01 L 146.676 158.574 C 143.068 156.537 141.158 154.07 140.026 152.053 C 139.457 151.04 139.084 150.138 138.782 149.434 C 138.634 149.088 138.496 148.773 138.36 148.525 C 138.236 148.3 138.061 148.028 137.796 147.887 L 137.561 148.329 L 137.327 148.77 C 137.308 148.761 137.364 148.79 137.484 149.008 C 137.592 149.204 137.712 149.474 137.863 149.828 C 138.161 150.522 138.555 151.474 139.154 152.543 C 140.359 154.69 142.39 157.302 146.184 159.445 L 146.43 159.01 Z M 137.561 148.329 L 137.796 147.887 C 137.731 147.853 137.634 147.778 137.459 147.626 C 137.299 147.486 137.085 147.292 136.829 147.081 C 136.307 146.651 135.582 146.126 134.52 145.612 C 132.399 144.585 128.971 143.62 123.174 143.48 L 123.162 143.98 L 123.15 144.479 C 128.849 144.617 132.127 145.564 134.085 146.512 C 135.062 146.985 135.72 147.463 136.193 147.853 C 136.435 148.052 136.623 148.224 136.802 148.38 C 136.966 148.523 137.145 148.674 137.327 148.77 L 137.561 148.329 Z M 123.162 143.98 L 123.174 143.48 C 117.405 143.34 113.958 143.255 111.395 142.764 C 108.88 142.282 107.226 141.41 105.068 139.647 L 104.752 140.034 L 104.436 140.421 C 106.692 142.265 108.495 143.227 111.207 143.746 C 113.872 144.257 117.422 144.341 123.15 144.479 L 123.162 143.98 Z M 104.752 140.034 L 105.068 139.647 C 102.756 137.757 99.172 136.656 95.411 136.061 C 91.633 135.464 87.598 135.367 84.316 135.54 L 84.342 136.04 L 84.369 136.539 C 87.597 136.369 91.56 136.465 95.255 137.049 C 98.968 137.636 102.334 138.703 104.436 140.421 L 104.752 140.034 Z M 84.342 136.04 L 84.316 135.54 C 80.855 135.723 79.19 137.573 77.921 138.782 C 77.268 139.404 76.799 139.773 76.284 139.854 C 75.802 139.93 75.139 139.766 74.077 138.898 L 73.761 139.285 L 73.445 139.672 C 74.59 140.608 75.539 140.983 76.439 140.842 C 77.304 140.706 77.984 140.103 78.611 139.506 C 79.902 138.276 81.32 136.699 84.369 136.539 L 84.342 136.04 Z M 73.761 139.285 L 74.077 138.898 C 71.969 137.174 71.974 135.996 71.3 134.783 C 70.948 134.15 70.44 133.613 69.464 133.165 C 68.516 132.73 67.123 132.378 64.991 132.074 L 64.921 132.569 L 64.85 133.064 C 66.955 133.364 68.233 133.701 69.047 134.074 C 69.834 134.435 70.179 134.825 70.426 135.269 C 70.95 136.211 71.139 137.788 73.445 139.672 L 73.761 139.285 Z M 64.921 132.569 L 64.991 132.074 C 60.677 131.461 54.22 132.068 48.522 132.804 C 45.664 133.173 42.974 133.579 40.823 133.885 C 38.644 134.196 37.066 134.397 36.369 134.38 L 36.356 134.88 L 36.344 135.38 C 37.147 135.399 38.83 135.179 40.964 134.875 C 43.125 134.567 45.801 134.164 48.65 133.796 C 54.366 133.057 60.691 132.473 64.85 133.064 L 64.921 132.569 Z M 36.356 134.88 L 36.369 134.38 C 35.717 134.365 34.676 134.058 33.38 133.549 C 32.104 133.048 30.649 132.378 29.198 131.687 C 27.755 131 26.306 130.288 25.075 129.718 C 23.858 129.154 22.787 128.698 22.103 128.544 L 21.994 129.031 L 21.884 129.519 C 22.444 129.645 23.416 130.051 24.655 130.625 C 25.882 131.193 27.306 131.894 28.768 132.59 C 30.222 133.282 31.704 133.965 33.014 134.48 C 34.304 134.987 35.496 135.359 36.344 135.38 L 36.356 134.88 Z M 21.994 129.031 L 22.103 128.544 C 21.434 128.393 20.395 128.305 19.209 128.253 C 18.012 128.201 16.629 128.183 15.251 128.181 C 12.476 128.177 9.755 128.236 8.51 128.205 L 8.498 128.705 L 8.485 129.205 C 9.74 129.236 12.523 129.177 15.249 129.181 C 16.622 129.183 17.989 129.2 19.165 129.252 C 20.352 129.304 21.31 129.39 21.884 129.519 L 21.994 129.031 Z M 8.498 128.705 L 8.51 128.205 L 0.012 128 L 0 128.5 L -0.012 129 L 8.485 129.205 L 8.498 128.705 Z M 0 128.5 L 0.5 128.5 L 0.5 26 L 0 26 L -0.5 26 L -0.5 128.5 L 0 128.5 Z M 653 183.588 L 652.99 184.088 L 840.99 188 L 841 187.5 L 841.01 187 L 653.01 183.088 L 653 183.588 Z" fill="currentColor" fill-rule="nonzero"></path>
</svg>